<?xml version="1.0" encoding="UTF-8"?>
<svg version="1.1" xmlns="http://www.w3.org/2000/svg" width="2000" height="2000">
<path d="M0 0 C660 0 1320 0 2000 0 C2000 660 2000 1320 2000 2000 C1340 2000 680 2000 0 2000 C0 1340 0 680 0 0 Z " fill="#FEFEFE" transform="translate(0,0)"/>
<path d="M0 0 C0.69609375 0.09665955 1.3921875 0.19331909 2.109375 0.29290771 C73.62820297 10.25607309 157.56315088 26.57316351 215 73 C215.54043945 73.4336084 216.08087891 73.8672168 216.63769531 74.31396484 C265.43162057 113.75224574 285.64580096 175.05630753 292.40673828 235.64501953 C298.96902659 302.68004066 291.62512098 377.69006892 247.60742188 431.70898438 C233.4469987 448.78641779 213.84801619 470.61194415 191 475 C186.6136251 475.32373028 182.26998921 475.28715383 177.875 475.1875 C176.72773437 475.17396484 175.58046875 475.16042969 174.3984375 475.14648438 C171.59845042 475.11148454 168.79948783 475.06238859 166 475 C167.31151464 471.06545608 169.14404537 470.20658379 172.5 467.8125 C182.06657363 460.81908319 189.81004817 453.44857544 197 444 C197.70769531 443.08089844 198.41539062 442.16179687 199.14453125 441.21484375 C220.91676661 411.4398408 234.35853299 373.42429573 229.375 336.375 C226.70389052 323.69189972 220.73137788 312.17325796 210.4375 304.1875 C198.09844332 296.17270488 183.51310407 295.2837685 169.375 298.125 C148.81286427 303.49890786 130.59880747 316.50785916 119.375 334.5625 C115.51366696 341.3699517 113.21355087 348.53309108 111 356 C111.49306641 355.19949219 111.49306641 355.19949219 111.99609375 354.3828125 C125.47888495 333.26342682 147.51926165 316.93799607 172 311 C181.90297026 310.07929141 190.85764968 310.42288181 199.0234375 316.5078125 C206.79026189 323.55366585 209.40079961 333.43253062 210.20678711 343.61157227 C210.30292858 346.28630286 210.329211 348.94861339 210.3125 351.625 C210.30404053 353.0639563 210.30404053 353.0639563 210.29541016 354.53198242 C209.79399268 384.27199622 196.42819484 410.90502584 176.25 432.1875 C164.62722802 443.37029323 142.0795891 462 125 462 C124.89042969 463.11632812 124.78085938 464.23265625 124.66796875 465.3828125 C123.80373299 473.98527518 122.82060023 482.5559073 121.61328125 491.1171875 C119.91329052 503.39273262 118.43865472 515.69147107 117 528 C116.87026794 529.10421295 116.74053589 530.2084259 116.60687256 531.34609985 C114.5490255 548.88025583 112.62884938 566.42034508 111 584 C111.86302734 583.98477295 112.72605469 583.9695459 113.61523438 583.95385742 C125.10633002 583.83530106 125.10633002 583.83530106 130.5 585.3125 C131.90765625 585.67794922 131.90765625 585.67794922 133.34375 586.05078125 C137.20613441 587.43101568 140.02311684 588.92564043 142.80078125 591.98046875 C144.67231954 596.69284366 144.31264779 601.29696175 144.1875 606.3125 C144.17396484 607.33923828 144.16042969 608.36597656 144.14648438 609.42382812 C144.11123883 611.94975909 144.061967 614.4746066 144 617 C145.28132813 616.79503906 146.56265625 616.59007812 147.8828125 616.37890625 C149.63016147 616.10647012 151.37756007 615.83435209 153.125 615.5625 C153.96160156 615.42779297 154.79820312 615.29308594 155.66015625 615.15429688 C167.74250324 613.29198023 179.86084868 612.81324289 192.06884766 612.81469727 C194.13073906 612.81249387 196.19210736 612.79418751 198.25390625 612.77539062 C209.33232891 612.72677531 219.75915444 613.75999443 230.1875 617.625 C230.90035156 617.88514893 231.61320312 618.14529785 232.34765625 618.41333008 C268.51961509 631.94211863 300.74647348 658.34571278 324 689 C324.93860897 690.20978527 325.87742581 691.41940928 326.81640625 692.62890625 C335.25987279 703.61783965 335.25987279 703.61783965 338.3671875 708.9609375 C344.82529266 719.98972491 353.06681098 728.57207009 362.23339844 737.36328125 C368.66601053 743.54356703 374.48623339 749.97305684 380 757 C381.0243322 758.2550681 382.05130198 759.50799269 383.08203125 760.7578125 C399.80709018 781.29924754 413.80150468 803.55577785 426.69384766 826.66210938 C427.81057027 828.66093849 428.94050754 830.65142083 430.07421875 832.640625 C445.4197214 860.30756898 456.5757446 890.54177252 465.984375 920.6484375 C469.31738646 931.26040141 473.01914801 941.74869061 476.69238281 952.24658203 C477.99352868 955.98142454 479.27516116 959.7225469 480.5546875 963.46484375 C485.50008967 977.83870124 490.89498118 991.9706825 496.75 1006 C497.06029144 1006.74468536 497.37058289 1007.48937073 497.6902771 1008.25662231 C498.59586701 1010.42320584 499.50692525 1012.58735343 500.421875 1014.75 C500.71355057 1015.4398851 501.00522614 1016.1297702 501.30574036 1016.84056091 C502.80431632 1020.34350001 504.36729487 1023.79764447 506.04492188 1027.21875 C506.37502258 1027.89711914 506.70512329 1028.57548828 507.04522705 1029.27441406 C507.67350047 1030.55348532 508.31370695 1031.8267923 508.96795654 1033.09277344 C510.27657248 1035.75399712 511.02599447 1037.62518222 510.81884766 1040.61206055 C505.68529488 1055.58262695 497.51784491 1069.44149542 488 1082 C487.56220215 1082.59039063 487.1244043 1083.18078125 486.67333984 1083.7890625 C479.46021779 1093.49564245 471.42030985 1102.33312178 463 1111 C461.90896973 1112.12390137 461.90896973 1112.12390137 460.79589844 1113.27050781 C445.26997141 1129.19132913 445.26997141 1129.19132913 436.609375 1135.94921875 C434.18550806 1137.854204 431.85571815 1139.84188454 429.53198242 1141.86694336 C421.11398339 1149.16872938 412.12264067 1155.61358852 403 1162 C402.22317871 1162.54446777 401.44635742 1163.08893555 400.64599609 1163.64990234 C362.75961253 1190.10511726 322.01556264 1212.78253245 280 1232 C279.3979071 1232.27547668 278.79581421 1232.55095337 278.17547607 1232.83477783 C261.60362426 1240.40271953 244.87806785 1247.56044761 227.96633911 1254.33517456 C225.39293351 1255.36780383 222.82329654 1256.40944436 220.25366211 1257.45141602 C213.03997579 1260.35538369 205.89528379 1263.13189507 198.4140625 1265.26953125 C188.16194227 1267.85114572 188.16194227 1267.85114572 180.28613281 1274.35253906 C177.52382057 1279.58570106 175.81883395 1284.98801362 174.58056641 1290.76098633 C174 1293 174 1293 172.86865234 1294.97924805 C171.29635142 1298.63690256 172.7972521 1301.48875483 174.20483398 1305.03808594 C174.71344971 1306.17536133 175.22206543 1307.31263672 175.74609375 1308.484375 C176.02817688 1309.11927353 176.31026001 1309.75417206 176.60089111 1310.40830994 C177.21652654 1311.79242943 177.83446923 1313.17552446 178.45443726 1314.55770874 C179.46186128 1316.80432717 180.4628275 1319.0537258 181.4621582 1321.30395508 C182.89938384 1324.53955085 184.33860216 1327.77424822 185.77929688 1331.00830078 C203.1555198 1370.04003678 220.03089921 1409.28538494 236.25 1448.8125 C236.84506348 1450.25890366 236.84506348 1450.25890366 237.45214844 1451.73452759 C238.56067727 1454.43206584 239.66413644 1457.13161184 240.765625 1459.83203125 C241.09580627 1460.63483521 241.42598755 1461.43763916 241.76617432 1462.26477051 C244 1467.76932229 244 1467.76932229 244 1470 C248.29744975 1467.20181091 252.40879241 1464.23786463 256.4375 1461.0625 C257.0365918 1460.59086426 257.63568359 1460.11922852 258.25292969 1459.63330078 C268.00346378 1451.88695889 277.32466841 1443.60278334 286.53686523 1435.2277832 C288.06481413 1433.84582923 289.60004225 1432.47182359 291.14648438 1431.1105957 C298.13801851 1424.9310645 304.74798532 1418.40507085 311.33276367 1411.79760742 C313.19142108 1409.93356756 315.05539614 1408.07496488 316.91992188 1406.21679688 C322.82738855 1400.31262997 328.60271977 1394.38056263 334 1388 C335.45445517 1386.39231627 336.91220895 1384.78760285 338.375 1383.1875 C343.10571502 1377.93824117 347.57083694 1372.50441004 352 1367 C352.91374442 1365.87864698 353.82782139 1364.75756489 354.7421875 1363.63671875 C380.61642755 1331.78948946 402.92752159 1297.14036388 422.31640625 1261.0078125 C422.75831299 1260.1943335 423.20021973 1259.38085449 423.65551758 1258.54272461 C424.59638463 1256.76332922 425.49681733 1254.96223339 426.3659668 1253.14672852 C429.76617645 1246.29119577 433.18019588 1242.62847726 439.6875 1238.6875 C441.38749411 1237.59045213 443.08535087 1236.49008639 444.78125 1235.38671875 C445.64621094 1234.83161621 446.51117187 1234.27651367 447.40234375 1233.70458984 C451.60390829 1230.94751055 455.64956857 1227.98983334 459.6875 1225 C460.86880493 1224.12553223 460.86880493 1224.12553223 462.07397461 1223.23339844 C469.90806919 1217.3876157 477.51571179 1211.28595576 485 1205 C485.61794434 1204.48115234 486.23588867 1203.96230469 486.87255859 1203.42773438 C501.40515617 1191.1600068 515.46862466 1178.32697211 528 1164 C528.93612481 1162.95045562 529.87232497 1161.90097845 530.80859375 1160.8515625 C555.4680298 1132.93311556 575.12527534 1100.97910245 588 1066 C588.27489258 1065.28279785 588.54978516 1064.5655957 588.83300781 1063.82666016 C589.59798728 1061.82921376 590.33525651 1059.82394782 591.0625 1057.8125 C591.46597656 1056.70519531 591.86945313 1055.59789062 592.28515625 1054.45703125 C599.17168746 1021.15331474 572.96638952 967.24441872 562 936 C561.67257812 935.05930664 561.34515625 934.11861328 561.0078125 933.14941406 C545.4231916 888.56902639 526.96615713 844.06381017 504.37548828 802.55224609 C502.77645995 799.58521695 501.21424073 796.60002062 499.65234375 793.61328125 C481.02641359 758.14743485 459.84567103 722.24498702 434.1875 691.375 C429.85674084 685.89786341 427.10582047 679.47696113 424.08447266 673.22412109 C404.46187752 632.98057276 378.16677057 594.90353828 349.3046875 560.7421875 C346.933944 557.92140456 344.62281162 555.05788717 342.3125 552.1875 C339.26977505 548.45494813 336.12140397 544.99923185 332.66015625 541.65625 C330.94475165 539.94488165 329.38202143 538.15810592 327.8125 536.3125 C323.29006166 531.06195935 318.32868116 526.24859289 313.40014648 521.3840332 C311.25710936 519.26565875 309.12909024 517.13238095 307 515 C305.96232322 513.96215596 304.92455841 512.92439992 303.88671875 511.88671875 C300.92447917 508.92447917 297.96223958 505.96223958 295 503 C298.18154502 498.53336032 301.53261584 494.34681922 305.25 490.3125 C319.2984361 474.8756925 330.23209434 457.36981296 340 439 C340.32597168 438.39333496 340.65194336 437.78666992 340.98779297 437.16162109 C354.52320022 411.81796213 362.81600915 383.92770063 369 356 C372.40829937 357.61817175 374.79530758 359.47765964 377.5625 362.0625 C381.13516621 365.34620056 384.77189536 368.47071062 388.5625 371.5 C392.87197787 374.98400042 396.8087772 378.65968276 400.63671875 382.6640625 C402.59283171 384.59754275 404.57871441 386.38028685 406.66308594 388.16967773 C410.85980993 391.82962766 414.82360534 395.67871265 418.75390625 399.62109375 C419.45845444 400.32468521 420.16300262 401.02827667 420.88890076 401.75318909 C422.36653367 403.23014648 423.84292457 404.70834742 425.31811523 406.18774414 C427.55666481 408.43165085 429.80050473 410.67016704 432.04492188 412.90820312 C433.48990404 414.35384618 434.93457592 415.79979945 436.37890625 417.24609375 C437.03951553 417.9046788 437.70012482 418.56326385 438.38075256 419.24180603 C442.23895229 423.11917807 445.91728008 427.10439168 449.48719788 431.24908447 C451.56379182 433.65253204 453.71982263 435.97953864 455.875 438.3125 C459.94417391 442.77388345 463.79977816 447.35944718 467.58984375 452.05859375 C469.8172815 454.77700643 472.09284528 457.44121783 474.39501953 460.09594727 C480.07055331 466.64194515 485.48226971 473.32598844 490.6875 480.25341797 C492.09937327 482.13223891 493.51831632 484.00560227 494.9375 485.87890625 C525.41987197 526.20596988 553.07409609 569.3934384 575 615 C575.78068848 616.61503418 575.78068848 616.61503418 576.57714844 618.26269531 C605.89588292 679.0413356 628.00925167 742.72391019 641 809 C641.18755859 809.95148926 641.37511719 810.90297852 641.56835938 811.88330078 C644.31822023 825.99743317 646.49514993 840.19623568 648.49560547 854.43408203 C648.82887693 856.79021125 649.1689243 859.14539308 649.51611328 861.49951172 C660.96413516 939.30944409 661.01488185 1024.39525464 644.71923828 1101.54345703 C643.98945158 1105.05069398 643.35574288 1108.56377052 642.74609375 1112.09375 C630.11939958 1184.19971566 605.67722926 1255.61792174 572.18457031 1320.68847656 C570.76403069 1323.46046113 569.36385195 1326.2424921 567.9609375 1329.0234375 C559.61870195 1345.449132 550.58047751 1361.26520857 541 1377 C540.41831055 1377.96196289 539.83662109 1378.92392578 539.23730469 1379.91503906 C531.57603508 1392.57414213 523.50335566 1404.89108872 515 1417 C514.53964355 1417.65613281 514.07928711 1418.31226563 513.60498047 1418.98828125 C507.05209816 1428.30065243 500.2997018 1437.46317076 493.3203125 1446.4609375 C492.64645508 1447.33093384 492.64645508 1447.33093384 491.95898438 1448.21850586 C490.69705323 1449.84465103 489.43069013 1451.46735407 488.1640625 1453.08984375 C485.70633669 1456.39490824 483.6655539 1459.80511668 481.6640625 1463.3984375 C479.52025705 1466.75002067 476.99688389 1469.64092281 474.375 1472.625 C470.7299383 1476.81559229 467.14582364 1481.02739313 463.6875 1485.375 C458.67041614 1491.55546563 453.19712741 1497.28633951 447.72265625 1503.05859375 C445.53803925 1505.36216141 443.37053496 1507.67598767 441.24609375 1510.03515625 C434.15426004 1517.88796169 426.72219009 1525.38647976 419.25 1532.875 C418.70611633 1533.42147186 418.16223267 1533.96794373 417.60186768 1534.53097534 C412.127954 1540.02542265 406.64432055 1545.45968696 400.74365234 1550.50146484 C397.98064725 1552.87605533 395.34421409 1555.38304662 392.6875 1557.875 C387.89004372 1562.33826707 382.96837627 1566.56974429 377.85546875 1570.671875 C375.22810634 1572.81402 372.66624991 1575.01110745 370.11157227 1577.23828125 C362.37223967 1583.97551553 354.32906649 1590.24120532 346.12597656 1596.40185547 C344.06605784 1597.95034283 342.01277356 1599.50723137 339.9609375 1601.06640625 C331.15384345 1607.74051528 322.20530402 1614.19264697 313.13769531 1620.5078125 C310.9587234 1622.02881254 308.78780909 1623.56086342 306.6171875 1625.09375 C305.20347276 1626.08383008 303.78942264 1627.07343149 302.375 1628.0625 C301.4169043 1628.74227905 301.4169043 1628.74227905 300.43945312 1629.43579102 C296.44823576 1632.2068272 292.49593036 1634.10857373 288 1636 C285.64891702 1637.39965057 283.35418798 1638.82329471 281.0625 1640.3125 C261.91895914 1652.47942552 242.08839389 1663.48105417 222 1674 C221.0212793 1674.51272461 220.04255859 1675.02544922 219.03417969 1675.55371094 C196.15148739 1687.45580842 172.38850924 1697.80399419 148.33203125 1707.09667969 C145.8833876 1708.04517021 143.44178724 1709.0105704 141 1709.9765625 C128.60732794 1714.83705589 116.05609205 1719.04025238 103.33837891 1722.96582031 C99.99546921 1724.00140357 96.66002733 1725.0589844 93.32421875 1726.1171875 C36.46106734 1743.90461604 -22.60174678 1754.64233165 -82 1759 C-83.90531494 1759.15227051 -83.90531494 1759.15227051 -85.84912109 1759.30761719 C-160.6923978 1765.18240206 -237.76959282 1759.82320165 -311 1743 C-312.40888321 1738.35634166 -313.42794404 1733.88358367 -314.11328125 1729.06640625 C-314.20780579 1728.40859161 -314.30233032 1727.75077698 -314.39971924 1727.07302856 C-314.70942807 1724.90358474 -315.01130713 1722.73314136 -315.3125 1720.5625 C-315.5304787 1719.01602642 -315.74849716 1717.46955845 -315.96655273 1715.9230957 C-317.96713261 1701.62789419 -319.74682749 1687.30584851 -321.51344299 1672.98022461 C-322.59020373 1664.25152107 -323.70276514 1655.52900609 -324.875 1646.8125 C-325.02557861 1645.68996826 -325.17615723 1644.56743652 -325.33129883 1643.41088867 C-325.67273374 1640.86845145 -326.01440639 1638.32604734 -326.35644531 1635.78369141 C-326.45606567 1635.04314514 -326.55568604 1634.30259888 -326.6583252 1633.53961182 C-326.90818219 1631.68246648 -327.15811081 1629.82533078 -327.40808105 1627.96820068 C-328.36393811 1620.86304888 -329.31518399 1613.75729702 -330.26226807 1606.65097046 C-330.58578571 1604.22924393 -330.9107627 1601.80771187 -331.23724365 1599.38638306 C-331.69825082 1595.96639637 -332.15432741 1592.54578404 -332.609375 1589.125 C-332.74979218 1588.09191208 -332.89020935 1587.05882416 -333.03488159 1585.99443054 C-333.65521501 1581.29533994 -334.17924707 1576.75306835 -334 1572 C-328.27442051 1573.1778335 -322.64435193 1574.6126822 -317.01171875 1576.171875 C-316.27507996 1576.37573318 -315.53844116 1576.57959137 -314.77947998 1576.78962708 C-314.01967834 1576.99996078 -313.25987671 1577.21029449 -312.47705078 1577.42700195 C-258.18687571 1592.45423449 -203.06305847 1600.40567865 -146.71728516 1600.31567383 C-143.58660443 1600.31106024 -140.45631397 1600.31792079 -137.32568359 1600.33618164 C-102.2365407 1600.5387674 -67.02469704 1598.16474018 -32.51806641 1591.48193359 C-30.69127985 1591.13230429 -28.86254637 1590.79279889 -27.03271484 1590.45947266 C-4.99362352 1586.44249542 16.54795609 1580.86178248 38.16650391 1575.02807617 C40.77410873 1574.32876246 43.37993828 1573.6485317 46 1573 C36.54944335 1535.9809687 17.8857535 1500.41642044 -2.65795898 1468.41113281 C-5.28003226 1464.2862773 -7.55918996 1460.08600742 -9.6875 1455.6875 C-31.09719894 1411.72558918 -72.30261523 1382.94340598 -117.33984375 1367.09375 C-137.36873989 1360.29068612 -157.97366212 1356.23024493 -178.875 1353.25 C-179.56636047 1353.14894958 -180.25772095 1353.04789917 -180.97003174 1352.94378662 C-206.5859291 1349.25062934 -232.32533734 1348.66489971 -258.15600586 1348.73925781 C-262.13632921 1348.75064149 -266.11638457 1348.74387279 -270.09669876 1348.73237228 C-307.91554937 1348.63997211 -345.05464764 1352.35909951 -382.5625 1357 C-383.58253113 1357.12556274 -384.60256226 1357.25112549 -385.65350342 1357.38049316 C-396.80209059 1358.75731641 -407.92179822 1360.20462987 -418.9981842 1362.0859375 C-422.70486744 1362.70327291 -426.2392534 1363.15594358 -430 1363 C-428.08408699 1423.24611812 -424.6372548 1483.54270931 -415.56152344 1543.17675781 C-414.98672859 1547.09036097 -414.47715359 1551.00595111 -413.9765625 1554.9296875 C-413.36098611 1559.62487602 -412.60443127 1564.19186291 -411.50048828 1568.79394531 C-410.91633927 1571.36876017 -410.46820987 1573.95151974 -410.02734375 1576.5546875 C-406.99750529 1594.26552196 -402.74098874 1611.50369096 -398.10351562 1628.84765625 C-397.07973114 1632.68363072 -396.09108909 1636.52802617 -395.109375 1640.375 C-392.61333415 1650.04586153 -390.01872679 1659.32054589 -386.0625 1668.5 C-381.94263798 1678.31158582 -380.9844869 1688.23148585 -384.046875 1698.515625 C-389.85304946 1711.49797013 -401.340965 1717.90148304 -414 1723 C-429.45314887 1728.63885807 -445.31697732 1731.43317537 -461.5625 1733.625 C-462.47169189 1733.74834717 -463.38088379 1733.87169434 -464.31762695 1733.9987793 C-480.91048901 1736.1283366 -497.43386992 1736.16167439 -514.13671875 1736.16796875 C-516.71125315 1736.17191912 -519.28578725 1736.17606377 -521.86032104 1736.1803894 C-529.426818 1736.19065791 -536.9932882 1736.19048253 -544.55979013 1736.18797541 C-546.68964451 1736.18749952 -548.81949788 1736.18765066 -550.94935226 1736.18803024 C-593.05345073 1736.19536386 -635.11093885 1735.77984564 -677.19422913 1734.37121582 C-691.95487699 1733.8836277 -706.71877932 1733.62037004 -721.48538208 1733.38870239 C-731.92013521 1733.22497506 -742.34630059 1732.9972984 -752.7734375 1732.5546875 C-753.64994965 1732.51971664 -754.52646179 1732.48474579 -755.42953491 1732.44871521 C-786.65069735 1731.01545417 -786.65069735 1731.01545417 -797 1721 C-798.61086199 1717.77827603 -798.45315806 1714.49391431 -798 1711 C-789.81864181 1694.63728362 -768.36624813 1685.00013705 -751.9375 1679.5 C-749.2965437 1678.65078912 -746.64870868 1677.82465583 -744 1677 C-698.35076113 1662.65452647 -654.55891881 1641.83262339 -610.94688416 1622.29040527 C-609.01243291 1621.42366627 -607.07743954 1620.55814809 -605.14233398 1619.69287109 C-602.77437387 1618.63293158 -600.40791162 1617.56963717 -598.04321289 1616.50244141 C-597.00801514 1616.0388623 -595.97281738 1615.5752832 -594.90625 1615.09765625 C-594.00197266 1614.69039307 -593.09769531 1614.28312988 -592.16601562 1613.86352539 C-590 1613 -590 1613 -588 1613 C-588.37330444 1611.55572632 -588.37330444 1611.55572632 -588.75415039 1610.08227539 C-591.26888498 1600.2513411 -593.44233277 1590.38548044 -595.4375 1580.4375 C-595.99649675 1577.66491563 -596.55790155 1574.89282888 -597.12109375 1572.12109375 C-597.26658157 1571.40425919 -597.4120694 1570.68742462 -597.56196594 1569.9488678 C-598.77048729 1564.03438313 -600.05659363 1558.1382585 -601.3515625 1552.2421875 C-604.22969009 1539.09615268 -606.89727446 1525.9094488 -609.53296661 1512.71292877 C-609.9439347 1510.65528257 -610.35548355 1508.597753 -610.76702881 1506.54022217 C-615.35837401 1483.56741322 -619.80351795 1460.56747453 -624.16524124 1437.55002213 C-624.62027094 1435.1499437 -625.07626582 1432.7500503 -625.53244019 1430.35018921 C-628.45332453 1414.97222047 -631.36704069 1399.60324803 -633.67938232 1384.11950684 C-634.26018967 1380.2799645 -634.88171475 1376.44693597 -635.5 1372.61328125 C-635.62402191 1371.84336853 -635.74804382 1371.07345581 -635.87582397 1370.2802124 C-636.1252976 1368.73258473 -636.37502299 1367.18499762 -636.625 1365.63745117 C-636.87584439 1364.08224859 -637.1258388 1362.52690868 -637.375 1360.97143555 C-638.65772816 1352.96524098 -639.98342575 1344.97905245 -641.53125 1337.01953125 C-643.23331678 1328.18741323 -644.3723994 1319.29561411 -645.5 1310.375 C-645.80267302 1308.0127813 -646.10668251 1305.65073822 -646.41108704 1303.28874207 C-646.61728477 1301.68674425 -646.8225054 1300.08462038 -647.02677917 1298.4823761 C-647.57403748 1294.20976967 -648.14370581 1289.94154705 -648.74731445 1285.67651367 C-650.58542078 1272.66413646 -652.05137732 1259.65489544 -653.1875 1246.5625 C-653.27404846 1245.57296326 -653.36059692 1244.58342651 -653.44976807 1243.56390381 C-658.91421493 1180.0567575 -658.91421493 1180.0567575 -647.08984375 1164.484375 C-633.901692 1148.94701103 -614.93365699 1142.00051288 -595 1140 C-592.2746249 1139.87832398 -589.57323725 1139.79085264 -586.84765625 1139.76171875 C-585.69940369 1139.74729988 -585.69940369 1139.74729988 -584.5279541 1139.73258972 C-582.03942352 1139.70787658 -579.55113923 1139.69530894 -577.0625 1139.6875 C-575.78317093 1139.68257538 -575.78317093 1139.68257538 -574.47799683 1139.67755127 C-562.06515987 1139.6622073 -549.87653778 1140.30530198 -537.5625 1141.875 C-536.87576202 1141.96204193 -536.18902405 1142.04908386 -535.48147583 1142.13876343 C-529.31388974 1142.93892547 -523.23709507 1143.81358456 -517.23413086 1145.45068359 C-510.72173397 1147.05191767 -504.04069528 1148.06047243 -497.43945312 1149.24462891 C-489.21467019 1150.72454099 -481.10252045 1152.4050101 -473.00878906 1154.48934937 C-465.55590983 1156.39873927 -458.0337432 1157.94710829 -450.5 1159.5 C-439.59413566 1161.74796968 -428.78571917 1164.23110707 -418 1167 C-417.03497559 1167.24314941 -416.06995117 1167.48629883 -415.07568359 1167.73681641 C-412.69401649 1168.33691072 -410.31544143 1168.94783629 -407.9375 1169.5625 C-406.77444336 1169.85543945 -406.77444336 1169.85543945 -405.58789062 1170.15429688 C-404.82541016 1170.35216797 -404.06292969 1170.55003906 -403.27734375 1170.75390625 C-402.61984131 1170.92220947 -401.96233887 1171.0905127 -401.28491211 1171.26391602 C-399 1172 -399 1172 -395.86816406 1173.40917969 C-391.3323668 1175.38796333 -386.62610077 1176.5180911 -381.83203125 1177.69921875 C-380.8747966 1177.9391304 -379.91756195 1178.17904205 -378.93132019 1178.42622375 C-376.91919827 1178.92901051 -374.9063494 1179.42889604 -372.89282227 1179.92602539 C-369.80995801 1180.6881284 -366.73009309 1181.46155867 -363.65039062 1182.23632812 C-361.69027237 1182.724634 -359.72999133 1183.21228702 -357.76953125 1183.69921875 C-356.3897686 1184.04601936 -356.3897686 1184.04601936 -354.98213196 1184.39982605 C-354.12411484 1184.61037125 -353.26609772 1184.82091644 -352.38208008 1185.0378418 C-351.63042068 1185.224207 -350.87876129 1185.4105722 -350.10432434 1185.60258484 C-347.70183385 1186.12371731 -347.70183385 1186.12371731 -344 1186 C-342.5420095 1184.48249361 -342.5420095 1184.48249361 -341.45703125 1182.38671875 C-341.02326172 1181.63326172 -340.58949219 1180.87980469 -340.14257812 1180.10351562 C-339.70365234 1179.30623047 -339.26472656 1178.50894531 -338.8125 1177.6875 C-338.36197266 1176.90181641 -337.91144531 1176.11613281 -337.44726562 1175.30664062 C-335.69290009 1172.21611663 -334.12679733 1169.380392 -333 1166 C-334.26263672 1165.61908203 -334.26263672 1165.61908203 -335.55078125 1165.23046875 C-339.28804097 1163.89724473 -342.71044091 1162.20016204 -346.1875 1160.3125 C-346.8482251 1159.95510742 -347.5089502 1159.59771484 -348.18969727 1159.22949219 C-367.88538923 1148.46337368 -385.52514807 1134.15963266 -402 1119 C-402.56235352 1118.48808105 -403.12470703 1117.97616211 -403.70410156 1117.44873047 C-412.09110951 1109.80936693 -420.07076335 1101.9618248 -427.63867188 1093.50976562 C-428.93637897 1092.07055818 -430.25673337 1090.65186784 -431.578125 1089.234375 C-436.70565003 1083.71986695 -441.43589447 1078.00568784 -446.03320312 1072.05102539 C-448.59500672 1068.74384597 -451.22127788 1065.57560865 -454.0625 1062.5 C-457.73086976 1058.45958462 -460.87590096 1054.11264293 -464.00146484 1049.65112305 C-467.74408735 1044.31336608 -471.64784325 1039.10948481 -475.62597656 1033.94506836 C-479.0723039 1029.41389607 -482.14944165 1024.7087124 -485.17700195 1019.88891602 C-486.99357284 1017.01018515 -488.84814819 1014.16027772 -490.71875 1011.31640625 C-512.45686143 978.2482305 -512.45686143 978.2482305 -510 962 C-508.51158316 957.14832186 -505.80024406 952.85024249 -503.31396484 948.45751953 C-500.62906643 943.43593138 -498.39739332 938.19074998 -496.0625 933 C-489.00606163 917.57437443 -481.19813405 903.54866663 -471 890 C-470.39502686 889.18668213 -470.39502686 889.18668213 -469.77783203 888.35693359 C-460.83211405 876.34637874 -451.04066597 865.07511471 -440.86279297 854.09814453 C-439.06658222 852.15909544 -437.28406195 850.21018084 -435.50878906 848.25170898 C-429.15892048 841.24974748 -422.62521988 834.46842359 -415.9284668 827.7980957 C-414.29943428 826.17447771 -412.67589272 824.54550397 -411.05273438 822.91601562 C-405.53998819 817.39976343 -399.94101 812.05720884 -394 807 C-392.39231627 805.54554483 -390.78760285 804.08779105 -389.1875 802.625 C-384.47019682 798.37871348 -379.6443324 794.3027818 -374.68310547 790.34423828 C-373.47888488 789.38246883 -372.27772747 788.41685901 -371.07861328 787.44873047 C-362.52863285 780.56085497 -353.83698672 774.04385793 -344.625 768.0625 C-343.7803418 767.51207031 -342.93568359 766.96164062 -342.06542969 766.39453125 C-338.57927285 764.15724932 -335.14114894 761.98938771 -331.38671875 760.23046875 C-322.78800842 756.08953963 -320.03595018 750.52936717 -316.078125 742.23046875 C-311.47371447 732.58221372 -304.27081602 724.72357745 -297 717 C-296.19175781 716.09507812 -296.19175781 716.09507812 -295.3671875 715.171875 C-277.15369408 695.58550519 -250.2902719 686.51719599 -224.78515625 681.5859375 C-220.70470142 680.72749679 -216.67204175 679.69117406 -212.63085938 678.66552734 C-206.30946027 677.06493521 -199.96726015 675.56101301 -193.61938477 674.06933594 C-188.47944411 672.85324863 -183.35629182 671.58641939 -178.2421875 670.265625 C-163.57816446 666.48763758 -148.99112665 663.18016575 -134 661 C-133.19916992 660.88285645 -132.39833984 660.76571289 -131.57324219 660.64501953 C-120.02612319 659.01719986 -108.64886492 658.76753928 -97 659 C-97.144375 657.79988281 -97.28875 656.59976563 -97.4375 655.36328125 C-102.18525593 613.69369739 -102.18525593 613.69369739 -94.4375 602.8125 C-91.83495053 600.11998585 -89.97026339 599.56589839 -86.25 599.5 C-83.76680756 599.66892466 -82.23209128 599.88395436 -80 601 C-79.67 585.16 -79.34 569.32 -79 553 C-84.61 553.99 -90.22 554.98 -96 556 C-107.72669382 557.7325507 -119.09184936 558.40113492 -130.9375 558.375 C-131.7859549 558.37512085 -132.63440979 558.3752417 -133.50857544 558.37536621 C-147.98381939 558.34615452 -161.83493686 557.12411727 -176 554 C-176.7513623 553.84515137 -177.50272461 553.69030273 -178.27685547 553.53076172 C-204.01142231 548.1923023 -229.92149974 536.61761221 -251 521 C-252.01964844 520.278125 -253.03929687 519.55625 -254.08984375 518.8125 C-260.82139257 513.82756623 -260.82139257 513.82756623 -261.57536316 510.33409119 C-263.09783251 498.38022574 -263.16194832 486.3091483 -263.16796875 474.27734375 C-263.17119916 472.71863274 -263.1745644 471.159922 -263.17805481 469.60121155 C-263.18398502 466.35661113 -263.18590116 463.11203708 -263.18530273 459.86743164 C-263.18522168 456.59328666 -263.1921418 453.31928221 -263.20581055 450.04516602 C-263.27825878 432.40794751 -263.23967827 414.93135762 -261.26626587 397.37850952 C-261.01024232 395.09149298 -260.779072 392.80351129 -260.55737305 390.51293945 C-252.8505896 311.66172634 -230.98781195 230.13578488 -186 164 C-185.45569336 163.19771973 -184.91138672 162.39543945 -184.35058594 161.56884766 C-180.58802979 156.03140437 -176.80305313 150.50969863 -173 145 C-175.75253376 142.14645582 -178.61145156 139.66888128 -181.75 137.25 C-193.04206559 128.26277599 -204.20055574 116.74202758 -207 102 C-208.05035423 89.44893172 -206.88687584 80.52392602 -198.87890625 70.2890625 C-196.6768603 67.74735954 -194.39595992 65.35884522 -192 63 C-191.07767578 62.07960937 -191.07767578 62.07960937 -190.13671875 61.140625 C-186.01644012 57.29385523 -181.46021065 54.19334153 -176.75 51.125 C-176.14712158 50.73111084 -175.54424316 50.33722168 -174.9230957 49.93139648 C-171.96614438 48.05532155 -169.41375985 46.73178429 -166 46 C-165.95101562 47.31613281 -165.90203125 48.63226563 -165.8515625 49.98828125 C-165.10312698 68.43563562 -163.07025065 86.74720287 -150 101 C-149.35546875 101.73476562 -148.7109375 102.46953125 -148.046875 103.2265625 C-136.31726639 115.84222068 -118.97208066 123.16688887 -102 125 C-102.83917969 124.45085937 -102.83917969 124.45085937 -103.6953125 123.890625 C-124.05814167 110.14080466 -143.91750508 91.18581724 -149.62060547 66.29199219 C-150.39550896 61.61065758 -150.51094037 56.92454064 -150.5625 52.1875 C-150.57732422 51.23302979 -150.59214844 50.27855957 -150.60742188 49.29516602 C-150.42388021 36.69961928 -144.43869659 26.6910047 -136.1875 17.5 C-124.88026502 6.70244005 -109.98598682 2.02261273 -95 -1 C-93.87440674 -1.24339111 -93.87440674 -1.24339111 -92.72607422 -1.49169922 C-62.56581984 -7.80249311 -30.20327963 -4.2430303 0 0 Z " fill="#08466F" transform="translate(1138,85)"/>
<path d="M0 0 C-1.65306999 5.44540704 -3.65877935 10.56225927 -6 15.75 C-19.29870065 45.62494366 -29.48268013 77.19060017 -37 109 C-37.24169922 110.01787598 -37.48339844 111.03575195 -37.73242188 112.08447266 C-41.64588756 128.82343271 -44.5142815 145.6591688 -47.08398438 162.64672852 C-47.20517136 163.44502075 -47.32635834 164.24331299 -47.45121765 165.0657959 C-47.67862559 166.57058548 -47.90338765 168.07577811 -48.12507629 169.5814209 C-48.56455878 172.50437519 -49.06281834 175.18845501 -50 178 C-52.51489258 179.15991211 -52.51489258 179.15991211 -55.89453125 180.27734375 C-57.15840442 180.70602246 -58.42223721 181.13482025 -59.68603516 181.5637207 C-60.35757629 181.78677887 -61.02911743 182.00983704 -61.7210083 182.23965454 C-109.61013666 198.21830307 -156.11898692 221.89089092 -198 250 C-199.11785889 250.74733398 -199.11785889 250.74733398 -200.25830078 251.50976562 C-218.15604597 263.50883838 -235.45263433 276.19439199 -252 290 C-252.59039063 290.49129395 -253.18078125 290.98258789 -253.7890625 291.48876953 C-260.22085395 296.85160013 -266.54332922 302.32072224 -272.73828125 307.95703125 C-274.79871641 309.81818425 -276.89114318 311.63171242 -279 313.4375 C-283.05128819 316.95787341 -286.78336874 320.76660047 -290.55078125 324.5859375 C-292.69754535 326.70188681 -294.88902621 328.67774368 -297.1875 330.625 C-300.47055282 333.43717672 -303.22972871 336.47148745 -306.01953125 339.765625 C-308.40460456 342.45647693 -310.94014888 344.97773022 -313.5 347.5 C-317.88371728 351.83736378 -322.01101983 356.29899091 -326 361 C-326.90141637 362.03856606 -327.80385009 363.07624957 -328.70703125 364.11328125 C-335.20984759 371.6023067 -341.45032078 379.25014744 -347.51660156 387.09570312 C-349.08748352 389.11230603 -350.67873036 391.11156909 -352.2734375 393.109375 C-361.459841 404.67420292 -369.83582032 416.69663016 -378 429 C-378.50128418 429.7513623 -379.00256836 430.50272461 -379.51904297 431.27685547 C-436.10224662 516.29814835 -471.82025334 615.84449368 -482 725 C-482.10586426 726.14452637 -482.21172852 727.28905273 -482.32080078 728.46826172 C-488.60153644 798.47208716 -483.46724989 871.93470954 -464.60351562 939.79101562 C-463.85979461 942.51317894 -463.20616811 945.25263611 -462.5625 948 C-461.65214336 951.82573191 -460.50191951 955.51276502 -459.23046875 959.23046875 C-455.71736456 969.66609595 -453.26928497 978.15608004 -454.51953125 989.17578125 C-457.96290244 1019.64141778 -453.24822096 1051.62805534 -449.625 1081.875 C-449.53207672 1082.66041168 -449.43915344 1083.44582336 -449.34341431 1084.2550354 C-446.14933212 1110.96270056 -441.29048903 1137.46832523 -436.5625 1163.9375 C-436.31968119 1165.30137158 -436.07697628 1166.66526343 -435.8343811 1168.0291748 C-432.96364562 1184.16728174 -430.05308745 1200.29651482 -426.99414062 1216.40014648 C-424.46705508 1229.72502909 -422.13063672 1243.08252404 -419.79736328 1256.44238281 C-419.10762728 1260.38919952 -418.41296445 1264.33513414 -417.71697998 1268.28085327 C-414.36424028 1287.28971906 -411.07367372 1306.30645531 -407.953125 1325.35498047 C-406.87731342 1331.89726489 -405.78469898 1338.41758232 -404.34301758 1344.89111328 C-403.95308354 1347.28844438 -403.94348258 1349.57532305 -404 1352 C-409.07147802 1347.75198361 -413.84018184 1343.31880967 -418.5 1338.625 C-419.16435059 1337.95799072 -419.82870117 1337.29098145 -420.51318359 1336.60375977 C-424.18840259 1332.89272257 -427.76145522 1329.14382115 -431.1328125 1325.15234375 C-434.3594023 1321.43299024 -437.75150031 1317.86420535 -441.11962891 1314.27319336 C-447.58661046 1307.35500409 -453.73990919 1300.19207827 -459.75 1292.875 C-460.35706787 1292.13636719 -460.96413574 1291.39773438 -461.58959961 1290.63671875 C-467.1620851 1283.83590148 -472.61833992 1276.95239271 -478 1270 C-478.50885742 1269.34563965 -479.01771484 1268.6912793 -479.54199219 1268.01708984 C-493.58610995 1249.93902336 -506.44586736 1231.13851366 -519 1212 C-519.53625 1211.18305664 -520.0725 1210.36611328 -520.625 1209.52441406 C-536.46330158 1185.26170338 -550.08761794 1159.73584958 -563.0670166 1133.85949707 C-563.93274215 1132.1340493 -564.80168544 1130.41021701 -565.67089844 1128.68652344 C-579.59739308 1100.93067521 -591.01263987 1072.1037539 -601.03367615 1042.73590088 C-602.43766652 1038.62163545 -603.87515489 1034.52131459 -605.34375 1030.4296875 C-609.26198608 1019.48371601 -612.64517571 1008.55316393 -615.43212891 997.26660156 C-616.17533149 994.30018162 -616.97080507 991.34896963 -617.76635742 988.39624023 C-618.87176141 984.27126097 -619.93660946 980.13597571 -621 976 C-621.39058594 974.49010498 -621.39058594 974.49010498 -621.7890625 972.94970703 C-630.75103811 938.0178944 -636.79877944 902.41262889 -640.625 866.5625 C-640.73618164 865.52988037 -640.84736328 864.49726074 -640.96191406 863.43334961 C-641.34620049 859.62518583 -641.67787655 855.81378022 -642 852 C-642.08224823 851.06844086 -642.16449646 850.13688171 -642.24923706 849.17709351 C-644.01181507 828.76413355 -644.34483176 808.45164771 -644.31567383 787.9753418 C-644.31106653 784.46967656 -644.31789715 780.96436036 -644.33618164 777.45874023 C-644.52417573 741.02103558 -642.06525899 705.0868696 -637 669 C-636.85481934 667.9284668 -636.70963867 666.85693359 -636.56005859 665.75292969 C-631.26494341 626.92208503 -622.52729562 588.43825794 -611 551 C-610.64067383 549.83162598 -610.28134766 548.66325195 -609.91113281 547.45947266 C-600.88773925 518.34546658 -590.29538105 489.89776454 -578 462 C-577.57960449 461.04351563 -577.15920898 460.08703125 -576.72607422 459.1015625 C-570.959247 446.06313008 -564.7281467 433.26014251 -558.375 420.5 C-558.02532166 419.79528564 -557.67564331 419.09057129 -557.31536865 418.36450195 C-552.19132564 408.05678851 -546.73315046 397.98108392 -541 388 C-540.28021973 386.74098877 -540.28021973 386.74098877 -539.54589844 385.45654297 C-524.54661284 359.37698118 -507.89063633 334.17957985 -490 310 C-489.5870166 309.43925781 -489.1740332 308.87851562 -488.74853516 308.30078125 C-473.84794268 288.09235948 -457.94622401 268.52863882 -441 250 C-440.14792969 249.06671875 -439.29585937 248.1334375 -438.41796875 247.171875 C-436.56518469 245.14474282 -434.707734 243.12200275 -432.84765625 241.1015625 C-431.01099489 239.10576126 -429.18803263 237.0999589 -427.37109375 235.0859375 C-420.86413822 227.89948418 -414.09505255 220.98967781 -407.25 214.125 C-406.3626416 213.23304932 -405.4752832 212.34109863 -404.56103516 211.42211914 C-400.12462527 206.99609217 -395.63109297 202.71341071 -390.87646484 198.63134766 C-387.7245 195.89111488 -384.71841591 192.99749724 -381.6875 190.125 C-376.54285081 185.28695176 -371.3073618 180.66581752 -365.78515625 176.2578125 C-363.1785842 174.14477092 -360.64455034 171.97117734 -358.11621094 169.76635742 C-350.3839731 163.03263207 -342.33533871 156.79436401 -334.14697266 150.62792969 C-332.0681773 149.05169504 -330.00618392 147.45614529 -327.94921875 145.8515625 C-294.78558804 120.03941646 -258.83867128 98.12123917 -222 78 C-220.67137939 77.27369385 -220.67137939 77.27369385 -219.31591797 76.53271484 C-171.19698895 50.39324723 -118.81390017 29.57819583 -66 15 C-64.97197266 14.71302246 -63.94394531 14.42604492 -62.88476562 14.13037109 C-48.12751271 10.02905334 -33.3354501 6.27885638 -18.375 3 C-17.32999832 2.76944916 -17.32999832 2.76944916 -16.2638855 2.53424072 C-4.72317719 0 -4.72317719 0 0 0 Z " fill="#08466F" transform="translate(845,267)"/>
<path d="M0 0 C2.21471936 2.21471936 2.79965629 3.73298786 3.890625 6.64453125 C4.26292236 7.61664551 4.63521973 8.58875977 5.01879883 9.59033203 C5.42509521 10.65364746 5.8313916 11.71696289 6.25 12.8125 C20.46881431 49.08406976 40.0408318 82.88678034 62 115 C63.00561454 116.49191378 64.01078169 117.98412917 65.015625 119.4765625 C70.98999074 128.31788393 77.11184181 136.93186472 83.70361328 145.32519531 C86.18640697 148.53272162 88.58342328 151.8049914 91 155.0625 C95.48549934 161.10411924 100.17982957 166.88637636 105.13671875 172.546875 C106.87224291 174.83179989 107.61385098 176.19878339 108 179 C107.06800781 179.60585937 106.13601563 180.21171875 105.17578125 180.8359375 C82.19278651 195.89177249 62.05023488 213.8866558 42.625 233.25 C42.1505545 233.72176666 41.67610901 234.19353333 41.18728638 234.67959595 C36.1610903 239.68424792 31.25483153 244.7302106 26.63623047 250.11425781 C23.77124277 253.41613262 20.75292771 256.57400083 17.75 259.75 C13.14918858 264.63291245 8.57758298 269.5377517 4.0625 274.5 C2.37765001 276.33576901 0.69044 278.16937717 -1 280 C-1.65871094 280.71414063 -2.31742188 281.42828125 -2.99609375 282.1640625 C-21.7036567 301.68837976 -47.83006703 315.34724021 -71.5 327.75 C-72.09462036 328.06449097 -72.68924072 328.37898193 -73.30187988 328.70300293 C-74.9985482 329.59760131 -76.70227895 330.47876595 -78.40625 331.359375 C-79.38916016 331.86952148 -80.37207031 332.37966797 -81.38476562 332.90527344 C-84 334 -84 334 -88 334 C-89.94199496 331.94076386 -91.64685277 329.91416228 -93.375 327.6875 C-103.97540995 314.73363469 -117.5070536 305.55919673 -132.8125 298.875 C-136 297 -136 297 -136.68432617 294.47973633 C-137.07905129 290.12860165 -137.20046544 285.81665535 -137.23828125 281.44921875 C-137.24798447 280.52588242 -137.25768768 279.60254608 -137.26768494 278.65122986 C-137.29262226 275.66327573 -137.30521397 272.67554784 -137.3125 269.6875 C-137.31642761 268.16476471 -137.31642761 268.16476471 -137.32043457 266.61126709 C-137.32786638 239.78509418 -132.40951818 215.5514502 -123.9375 190.1875 C-123.58242874 189.12208984 -123.58242874 189.12208984 -123.22018433 188.03515625 C-118.53085493 174.03676235 -113.12198008 160.43875074 -107 147 C-106.52449707 145.95408691 -106.04899414 144.90817383 -105.55908203 143.83056641 C-90.42958403 110.84694647 -71.58101799 79.43808465 -49 51 C-48.26136719 50.06671875 -47.52273438 49.1334375 -46.76171875 48.171875 C-41.92329624 42.15607436 -36.81874622 36.44392812 -31.5703125 30.7890625 C-29.41922571 28.4549045 -27.32074342 26.09253383 -25.25 23.6875 C-19.64419227 17.24281843 -13.4839829 11.54684474 -7 6 C-6.319375 5.41476562 -5.63875 4.82953125 -4.9375 4.2265625 C-3.29398963 2.81499916 -1.64733469 1.40709838 0 0 Z " fill="#FEFEFE" transform="translate(1384,909)"/>
<path d="M0 0 C1.09477537 3.28432611 0.9125724 4.18662661 0.07421875 7.4296875 C-0.14556641 8.30882812 -0.36535156 9.18796875 -0.59179688 10.09375 C-0.82962891 11.0115625 -1.06746094 11.929375 -1.3125 12.875 C-4.50673143 25.28791073 -6.37340938 37.28342751 -6.3125 50.125 C-6.31048584 51.29353516 -6.30847168 52.46207031 -6.30639648 53.66601562 C-6.20870339 62.19748957 -5.37721244 70.35255553 -3.75390625 78.71875 C3.8725073 119.19923867 -5.04463571 165.53652685 -15 205 C-15.36606804 206.50745273 -15.73068225 208.01525934 -16.09375 209.5234375 C-17.8474093 216.74890605 -19.75085314 223.9117796 -22 231 C-25.73724331 229.49506981 -27.58268345 227.38337568 -30.0625 224.25 C-30.84753906 223.26128906 -31.63257813 222.27257813 -32.44140625 221.25390625 C-32.85664551 220.7242627 -33.27188477 220.19461914 -33.69970703 219.64892578 C-35.02306338 217.9707529 -36.36664059 216.31060005 -37.71484375 214.65234375 C-47.34404351 202.73192997 -55.0662715 190.39987031 -61.73632812 176.60498047 C-80.79532792 134.1777895 -80.79532792 134.1777895 -116 106 C-113.31857885 103.91449231 -110.62139509 102.1442142 -107.6484375 100.50390625 C-106.80635742 100.03412354 -105.96427734 99.56434082 -105.09667969 99.08032227 C-103.74944824 98.32900024 -103.74944824 98.32900024 -102.375 97.5625 C-82.12069194 86.10264184 -63.06028667 72.8707621 -46 57 C-44.6290837 55.80778787 -43.25423376 54.62008001 -41.875 53.4375 C-25.9937525 39.56936838 -13.80282207 22.96864253 -3 5 C-2.41089844 4.0203125 -1.82179688 3.040625 -1.21484375 2.03125 C-0.81394531 1.3609375 -0.41304687 0.690625 0 0 Z " fill="#FDFDFD" transform="translate(873,939)"/>
<path d="M0 0 C5.40931904 3.55876253 10.70460564 7.27438657 16 11 C8.76825748 13.55441025 -0.41159221 9.14446735 -7 6 C-4.9859524 2.9789286 -3.36720387 1.39332574 0 0 Z " fill="#F2F5F7" transform="translate(1021,199)"/>
<path d="M0 0 C0.33 0 0.66 0 1 0 C1.50534727 2.72827365 2.00443845 5.45744694 2.5 8.1875 C2.64308594 8.95642578 2.78617187 9.72535156 2.93359375 10.51757812 C3.63238715 14.39421773 4.19039017 18.041471 4 22 C-3.48291572 15.84965831 -3.48291572 15.84965831 -6 12 C-5.34 11.67 -4.68 11.34 -4 11 C-4.33 9.68 -4.66 8.36 -5 7 C-4.01 6.67 -3.02 6.34 -2 6 C-1.67 5.01 -1.34 4.02 -1 3 C-0.67 2.01 -0.34 1.02 0 0 Z " fill="#195175" transform="translate(437,1597)"/>
<path d="M0 0 C1.12670431 3.38011294 0.84431821 4.50457306 0.00390625 7.88671875 C-0.22490234 8.82451172 -0.45371094 9.76230469 -0.68945312 10.72851562 C-0.93630859 11.70498047 -1.18316406 12.68144531 -1.4375 13.6875 C-1.68048828 14.67556641 -1.92347656 15.66363281 -2.17382812 16.68164062 C-2.77531863 19.12298445 -3.38430006 21.56220809 -4 24 C-4.66 23.34 -5.32 22.68 -6 22 C-6.66 22.33 -7.32 22.66 -8 23 C-8.33 22.01 -8.66 21.02 -9 20 C-9.99 19.67 -10.98 19.34 -12 19 C-11.55269531 18.38253906 -11.10539063 17.76507812 -10.64453125 17.12890625 C-6.69678548 11.59869522 -3.15448582 6.01823561 0 0 Z " fill="#EFF4F6" transform="translate(873,939)"/>
<path d="M0 0 C0.66 0 1.32 0 2 0 C2 8.91 2 17.82 2 27 C1.67 27 1.34 27 1 27 C0.67 23.7 0.34 20.4 0 17 C-0.99 16.67 -1.98 16.34 -3 16 C-3 18.64 -3 21.28 -3 24 C-3.33 24 -3.66 24 -4 24 C-4 18.72 -4 13.44 -4 8 C-2.68 7.67 -1.36 7.34 0 7 C0 4.69 0 2.38 0 0 Z " fill="#154E73" transform="translate(1245,1160)"/>
<path d="M0 0 C5.14018692 7.71028037 5.14018692 7.71028037 4.6875 11.875 C4.460625 12.57625 4.23375 13.2775 4 14 C3.67 13.34 3.34 12.68 3 12 C2.401875 12.515625 1.80375 13.03125 1.1875 13.5625 C0.465625 14.036875 -0.25625 14.51125 -1 15 C-1.99 14.67 -2.98 14.34 -4 14 C-2.68 9.38 -1.36 4.76 0 0 Z " fill="#164E73" transform="translate(1644,1114)"/>
<path d="M0 0 C0.66 0 1.32 0 2 0 C2.69499399 2.7027544 3.08000105 4.61999501 2.5 7.375 C1.85436952 10.76456 2.40452608 13.6256478 3 17 C1.68 17.33 0.36 17.66 -1 18 C-2.04559253 11.41276707 -1.83292414 6.40766041 0 0 Z " fill="#114B71" transform="translate(220,870)"/>
<path d="M0 0 C2.76262368 2.76262368 2.61811333 4.97062088 3.125 8.8125 C3.29257813 10.03582031 3.46015625 11.25914062 3.6328125 12.51953125 C3.93552171 15.38882808 4.07678299 18.12063778 4 21 C3.34 19.68 2.68 18.36 2 17 C1.34 17.66 0.68 18.32 0 19 C-0.9991932 15.89139894 -0.83036989 14.11388708 0 11 C-0.33 10.34 -0.66 9.68 -1 9 C-0.91348369 7.45386986 -0.75997364 5.91090613 -0.5625 4.375 C-0.46066406 3.55773437 -0.35882812 2.74046875 -0.25390625 1.8984375 C-0.17011719 1.27195312 -0.08632812 0.64546875 0 0 Z " fill="#1C5276" transform="translate(1426,301)"/>
<path d="M0 0 C2.31 0.33 4.62 0.66 7 1 C7 2.98 7 4.96 7 7 C6.01 7 5.02 7 4 7 C3.67 8.65 3.34 10.3 3 12 C2.67 12 2.34 12 2 12 C1.34 8.04 0.68 4.08 0 0 Z " fill="#175075" transform="translate(536,1633)"/>
<path d="M0 0 C1.95273962 2.92910944 2.75396363 5.08132291 3.6875 8.4375 C3.95949219 9.38496094 4.23148438 10.33242187 4.51171875 11.30859375 C4.99803744 13.98918237 4.89369149 15.46287583 4 18 C3.71125 17.030625 3.4225 16.06125 3.125 15.0625 C2.35785318 11.89335797 2.35785318 11.89335797 0 11 C0 11.66 0 12.32 0 13 C-0.66 13 -1.32 13 -2 13 C-1.73958333 11.01432292 -1.47916667 9.02864583 -1.21875 7.04296875 C-0.946767 4.84528294 -0.946767 4.84528294 -1 2 C-0.67 1.34 -0.34 0.68 0 0 Z " fill="#21567A" transform="translate(739,1715)"/>
<path d="M0 0 C0.33 0 0.66 0 1 0 C1.33 7.59 1.66 15.18 2 23 C1.67 21.68 1.34 20.36 1 19 C0.01 18.67 -0.98 18.34 -2 18 C-2.07455741 14.12301475 -2.04859979 10.72835482 -1 7 C-0.6503582 4.66905466 -0.31445513 2.33595238 0 0 Z " fill="#295C7F" transform="translate(710,1514)"/>
<path d="M0 0 C2.64752004 2.57784846 4.94432065 4.91648098 7 8 C5.68 7.67 4.36 7.34 3 7 C3 6.34 3 5.68 3 5 C2.34 5 1.68 5 1 5 C1 5.99 1 6.98 1 8 C-0.32 7.34 -1.64 6.68 -3 6 C-3 4.68 -3 3.36 -3 2 C-2.01 1.34 -1.02 0.68 0 0 Z " fill="#164D73" transform="translate(1589,519)"/>
<path d="M0 0 C-1.36508501 3.11728368 -2.86919698 5.08663738 -5.4375 7.3125 C-6.03433594 7.84488281 -6.63117187 8.37726562 -7.24609375 8.92578125 C-7.82488281 9.28027344 -8.40367187 9.63476562 -9 10 C-9.99 9.67 -10.98 9.34 -12 9 C-5.66666667 0 -5.66666667 0 0 0 Z " fill="#164E73" transform="translate(595,553)"/>
<path d="M0 0 C0 3.17547896 -0.26991384 4.39693459 -2 7 C-4.05859375 8.046875 -4.05859375 8.046875 -6.4375 8.75 C-7.21996094 8.99234375 -8.00242187 9.2346875 -8.80859375 9.484375 C-11 10 -11 10 -14 10 C-12.22970554 8.70759488 -10.45874502 7.41610207 -8.6875 6.125 C-7.70136719 5.40570312 -6.71523437 4.68640625 -5.69921875 3.9453125 C-3.82476885 2.5944065 -1.92247007 1.28164671 0 0 Z " fill="#154D70" transform="translate(1582,1321)"/>
<path d="M0 0 C0.99 0 1.98 0 3 0 C3.33 1.32 3.66 2.64 4 4 C3.360625 4.103125 2.72125 4.20625 2.0625 4.3125 C1.381875 4.539375 0.70125 4.76625 0 5 C-0.33 5.99 -0.66 6.98 -1 8 C-2.98 8.33 -4.96 8.66 -7 9 C-6.02180976 7.68677212 -5.0424189 6.37443848 -4.0625 5.0625 C-3.51722656 4.33160156 -2.97195313 3.60070313 -2.41015625 2.84765625 C-1 1 -1 1 0 0 Z " fill="#134C72" transform="translate(1676,1237)"/>
<path d="M0 0 C2.41847994 2.92119768 3.68706766 5.4915068 4.75 9.125 C5.01296875 9.99382813 5.2759375 10.86265625 5.546875 11.7578125 C6 14 6 14 5 16 C4.34 16 3.68 16 3 16 C0.06298031 11.10496718 -0.16954191 5.59488309 0 0 Z " fill="#154E73" transform="translate(1745,778)"/>
<path d="M0 0 C0.99 0.33 1.98 0.66 3 1 C3 3.31 3 5.62 3 8 C2.01 8.495 2.01 8.495 1 9 C0.34227572 12.02934491 0.34227572 12.02934491 0 15 C-0.33 15 -0.66 15 -1 15 C-1.66 11.04 -2.32 7.08 -3 3 C-2.34 3 -1.68 3 -1 3 C-0.67 2.01 -0.34 1.02 0 0 Z " fill="#154F75" transform="translate(548,1672)"/>
<path d="M0 0 C1.32 0.66 2.64 1.32 4 2 C3.67 6.29 3.34 10.58 3 15 C2.67 15 2.34 15 2 15 C1.34 12.03 0.68 9.06 0 6 C-0.66 6 -1.32 6 -2 6 C-1.125 1.125 -1.125 1.125 0 0 Z " fill="#1A5378" transform="translate(1787,1119)"/>
<path d="M0 0 C0.99 0 1.98 0 3 0 C3.28526928 3.37885612 3.46087248 6.63291991 3 10 C0.5 12.125 0.5 12.125 -2 13 C-1.39174965 8.65535464 -0.73832608 4.32448133 0 0 Z " fill="#154F74" transform="translate(860,1131)"/>
<path d="M0 0 C2 1 2 1 3.125 4.1875 C3.91680237 7.63749602 4.1714979 10.484293 4 14 C2.68 14.33 1.36 14.66 0 15 C0 10.05 0 5.1 0 0 Z " fill="#144E73" transform="translate(722,1641)"/>
<path d="M0 0 C0 0.66 0 1.32 0 2 C-8.03501094 6.07877462 -8.03501094 6.07877462 -12.0625 5.75 C-12.701875 5.5025 -13.34125 5.255 -14 5 C-11.84871634 1.77307451 -11.63210677 1.58671036 -8.125 0.8125 C-7.44695312 0.65394531 -6.76890625 0.49539063 -6.0703125 0.33203125 C-4 0 -4 0 0 0 Z " fill="#124C72" transform="translate(1386,1329)"/>
<path d="M0 0 C2.64 0 5.28 0 8 0 C9 3 9 3 9 6 C6.69 6 4.38 6 2 6 C1.67 5.01 1.34 4.02 1 3 C1.99 2.67 2.98 2.34 4 2 C2.68 1.34 1.36 0.68 0 0 Z " fill="#195177" transform="translate(543,1225)"/>
<path d="M0 0 C0.33 0 0.66 0 1 0 C1.22692276 3.32820054 1.32162419 5.41801336 -0.3125 8.375 C-2 10 -2 10 -5 10 C-4.67 7.36 -4.34 4.72 -4 2 C-3.01 2.33 -2.02 2.66 -1 3 C-0.67 2.01 -0.34 1.02 0 0 Z " fill="#195176" transform="translate(1790,974)"/>
<path d="M0 0 C0.66 0 1.32 0 2 0 C3.31626692 3.61973402 4 6.09567131 4 10 C2.68 10 1.36 10 0 10 C-1.2380014 6.42355152 -0.74926071 3.66305234 0 0 Z " fill="#154F73" transform="translate(1594,981)"/>
<path d="M0 0 C1.23922223 3.71766668 0.57018942 5.43889537 -0.4375 9.1875 C-0.72496094 10.27417969 -1.01242187 11.36085938 -1.30859375 12.48046875 C-1.65083984 13.72763672 -1.65083984 13.72763672 -2 15 C-2.33 14.01 -2.66 13.02 -3 12 C-3.99 12 -4.98 12 -6 12 C-4.43358249 7.69235185 -2.31663844 3.93828536 0 0 Z " fill="#DCE6EC" transform="translate(873,939)"/>
<path d="M0 0 C0.66 0 1.32 0 2 0 C3.32 3.63 4.64 7.26 6 11 C5.34 11.66 4.68 12.32 4 13 C3.67 11.68 3.34 10.36 3 9 C2.34 9 1.68 9 1 9 C0.67 6.03 0.34 3.06 0 0 Z " fill="#144D73" transform="translate(1361,1507)"/>
<path d="M0 0 C0.99 0.33 1.98 0.66 3 1 C0.69 4.63 -1.62 8.26 -4 12 C-4.66 11.01 -5.32 10.02 -6 9 C-5.34 7.68 -4.68 6.36 -4 5 C-3.34 5 -2.68 5 -2 5 C-1.855625 4.360625 -1.71125 3.72125 -1.5625 3.0625 C-1 1 -1 1 0 0 Z " fill="#154D72" transform="translate(1664,1480)"/>
<path d="M0 0 C0.66 0 1.32 0 2 0 C1.58894145 5.24099655 0.75960806 8.24039194 -3 12 C-3.66 12 -4.32 12 -5 12 C-3.68938409 7.76570244 -2.05643741 3.92592596 0 0 Z " fill="#164E74" transform="translate(932,283)"/>
<path d="M0 0 C2.34914492 2.34914492 2.73140357 3.95679446 3.625 7.125 C3.88539062 8.03507812 4.14578125 8.94515625 4.4140625 9.8828125 C4.70410156 10.93082031 4.70410156 10.93082031 5 12 C3.68 12 2.36 12 1 12 C1 9.69 1 7.38 1 5 C0.34 5 -0.32 5 -1 5 C-0.67 3.35 -0.34 1.7 0 0 Z " fill="#1A5074" transform="translate(1372,1531)"/>
<path d="M0 0 C0.33 0 0.66 0 1 0 C1.19139889 5.45486849 0.87720194 9.78555016 -1 15 C-1.66 15.66 -2.32 16.32 -3 17 C-2.54775239 11.08507728 -1.8417395 5.64800112 0 0 Z " fill="#316282" transform="translate(213,908)"/>
<path d="M0 0 C0.66 0 1.32 0 2 0 C1.67 3.63 1.34 7.26 1 11 C-0.32 10.67 -1.64 10.34 -3 10 C-2.39009109 6.44219804 -1.4216319 3.3171411 0 0 Z " fill="#185074" transform="translate(1260,555)"/>
<path d="M0 0 C0.33 1.32 0.66 2.64 1 4 C-1.62198774 6.15377564 -3.64404172 7.40072174 -7 8 C-7.33 7.01 -7.66 6.02 -8 5 C-4.04 2.525 -4.04 2.525 0 0 Z " fill="#154D73" transform="translate(1287,405)"/>
<path d="M0 0 C1.32 0.33 2.64 0.66 4 1 C3.814375 1.721875 3.62875 2.44375 3.4375 3.1875 C2.83182862 5.97825769 2.83182862 5.97825769 3.5625 8.625 C4 11 4 11 2 14 C1.66179834 12.4176994 1.32964061 10.83410625 1 9.25 C0.814375 8.36828125 0.62875 7.4865625 0.4375 6.578125 C0 4 0 4 0 0 Z " fill="#1E5577" transform="translate(530,1602)"/>
<path d="M0 0 C-2 4 -4 8 -6 12 C-6.66 12 -7.32 12 -8 12 C-8.70703125 10.265625 -8.70703125 10.265625 -9 8 C-7.63671875 5.859375 -7.63671875 5.859375 -5.6875 3.75 C-5.05199219 3.04359375 -4.41648437 2.3371875 -3.76171875 1.609375 C-2 0 -2 0 0 0 Z " fill="#1D5377" transform="translate(400,523)"/>
<path d="M0 0 C0.96070434 2.88211302 1.10581883 4.69850044 1.0625 7.6875 C1.05347656 8.49574219 1.04445313 9.30398438 1.03515625 10.13671875 C1.02355469 10.75160156 1.01195312 11.36648438 1 12 C0.01 12.33 -0.98 12.66 -2 13 C-2.16682272 8.07872966 -2.24828052 4.49656104 0 0 Z " fill="#1E5477" transform="translate(878,483)"/>
<path d="M0 0 C2.3828125 -0.29296875 2.3828125 -0.29296875 5.125 -0.1875 C6.03507812 -0.16042969 6.94515625 -0.13335937 7.8828125 -0.10546875 C8.58148437 -0.07066406 9.28015625 -0.03585938 10 0 C9.67 0.99 9.34 1.98 9 3 C5.37 3 1.74 3 -2 3 C-1.34 2.01 -0.68 1.02 0 0 Z " fill="#164F76" transform="translate(1113,83)"/>
<path d="M0 0 C0.66 0.33 1.32 0.66 2 1 C0.7874262 4.72433382 -0.50859979 8.37802806 -2 12 C-2.66 11.67 -3.32 11.34 -4 11 C-3.56179109 6.44262737 -3.14958831 3.42346555 0 0 Z " fill="#154E73" transform="translate(1278,1049)"/>
<path d="M0 0 C0.66 0.66 1.32 1.32 2 2 C0.02 4.97 -1.96 7.94 -4 11 C-4.66 9.68 -5.32 8.36 -6 7 C-4.71937515 5.2925002 -3.38232443 3.62626404 -2 2 C-1.34 2 -0.68 2 0 2 C0 1.34 0 0.68 0 0 Z " fill="#134C72" transform="translate(1634,1150)"/>
<path d="M0 0 C1.79068573 2.6860286 2.66055791 4.6626589 3.625 7.6875 C3.88539062 8.49574219 4.14578125 9.30398438 4.4140625 10.13671875 C4.60742188 10.75160156 4.80078125 11.36648438 5 12 C3.68 12 2.36 12 1 12 C-1.1011236 8.53932584 -1.1011236 8.53932584 -0.625 6 C-0.41875 5.34 -0.2125 4.68 0 4 C0 2.68 0 1.36 0 0 Z " fill="#1C5274" transform="translate(1588,963)"/>
<path d="M0 0 C0.33 0 0.66 0 1 0 C1.17786056 5.15795631 1.11596899 9.18029285 -1 14 C-1.99 14.495 -1.99 14.495 -3 15 C-2.44854729 9.76119922 -1.57077907 5.02649303 0 0 Z " fill="#24587B" transform="translate(899,364)"/>
<path d="M0 0 C0.33 0.66 0.66 1.32 1 2 C0.01 3.485 0.01 3.485 -1 5 C-1.66 5 -2.32 5 -3 5 C-3.309375 5.61875 -3.61875 6.2375 -3.9375 6.875 C-4.625 8.25 -5.3125 9.625 -6 11 C-7.32 10.67 -8.64 10.34 -10 10 C-6.7 6.7 -3.4 3.4 0 0 Z " fill="#1B5174" transform="translate(949,145)"/>
<path d="M0 0 C0.33 1.32 0.66 2.64 1 4 C-1.1875 6.8125 -1.1875 6.8125 -4 9 C-5.32 8.67 -6.64 8.34 -8 8 C-5.36 5.36 -2.72 2.72 0 0 Z " fill="#185076" transform="translate(1455,1491)"/>
<path d="M0 0 C0.5534764 2.07553648 1 3.84365964 1 6 C0.34 6 -0.32 6 -1 6 C-1.33 6.99 -1.66 7.98 -2 9 C-2.99 8.34 -3.98 7.68 -5 7 C-3.70700306 4.11562221 -2.34058637 2.12780579 0 0 Z " fill="#195075" transform="translate(1408,1161)"/>
<path d="M0 0 C5 2 5 2 6.375 4.375 C7 7 7 7 6 11 C4.02 7.37 2.04 3.74 0 0 Z " fill="#174E72" transform="translate(1537,713)"/>
<path d="M0 0 C-1.14003235 3.42009706 -2.22170198 4.28869442 -4.9375 6.5625 C-7.03343963 8.33130568 -9.05994888 10.05994888 -11 12 C-11.99 11.67 -12.98 11.34 -14 11 C-13.46890625 10.54109375 -12.9378125 10.0821875 -12.390625 9.609375 C-7.8947499 5.70720627 -7.8947499 5.70720627 -3.625 1.5625 C-2 0 -2 0 0 0 Z " fill="#E5EFF4" transform="translate(1545,1630)"/>
<path d="M0 0 C0.66 0.99 1.32 1.98 2 3 C1.125 6.6875 1.125 6.6875 0 10 C-1.32 9.67 -2.64 9.34 -4 9 C-3.67 8.01 -3.34 7.02 -3 6 C-3 5.01 -3 4.02 -3 3 C-2.67 2.34 -2.34 1.68 -2 1 C-1.34 1.33 -0.68 1.66 0 2 C0 1.34 0 0.68 0 0 Z " fill="#124B71" transform="translate(1757,1282)"/>
<path d="M0 0 C1.9375 0.375 1.9375 0.375 4 1 C4.33 1.66 4.66 2.32 5 3 C5.66 3.66 6.32 4.32 7 5 C7 6.32 7 7.64 7 9 C2.97449681 7.6581656 2.11714364 5.5772427 0 2 C0 1.34 0 0.68 0 0 Z " fill="#154C6F" transform="translate(1527,697)"/>
<path d="M0 0 C0.33 0 0.66 0 1 0 C1.33 3.63 1.66 7.26 2 11 C1.01 11 0.02 11 -1 11 C-2.60080151 6.99799622 -1.29279692 3.95443764 0 0 Z " fill="#255879" transform="translate(1365,466)"/>
<path d="M0 0 C3.94139078 1.66751148 6.7892812 4.22710649 10 7 C9.34 7.66 8.68 8.32 8 9 C7.67 8.01 7.34 7.02 7 6 C5.35 6 3.7 6 2 6 C1.34 4.02 0.68 2.04 0 0 Z " fill="#1B5072" transform="translate(1507,441)"/>
<path d="M0 0 C0.93423645 3.01031744 1.04449911 3.86650268 0 7 C-0.66 7 -1.32 7 -2 7 C-2.66 8.32 -3.32 9.64 -4 11 C-4.66 11 -5.32 11 -6 11 C-4.54955729 6.89041233 -2.48889248 3.56741255 0 0 Z " fill="#1D5276" transform="translate(952,249)"/>
<path d="M0 0 C0.66 0.33 1.32 0.66 2 1 C0.86873442 4.39379675 -0.22666082 5.78132865 -3 8 C-4.32 7.67 -5.64 7.34 -7 7 C-4.69 4.69 -2.38 2.38 0 0 Z " fill="#175076" transform="translate(1446,1500)"/>
<path d="M0 0 C0 3.20395416 -0.74335022 5.09399739 -2 8 C-2.5775 7.814375 -3.155 7.62875 -3.75 7.4375 C-6.20692525 6.95976454 -7.64397534 7.24270636 -10 8 C-6.66666667 5.33333333 -3.33333333 2.66666667 0 0 Z " fill="#1B5275" transform="translate(1360,1207)"/>
<path d="M0 0 C1.32 0.66 2.64 1.32 4 2 C1.03 4.475 1.03 4.475 -2 7 C-2.66 6.67 -3.32 6.34 -4 6 C-2.84826645 3.53199953 -1.95216435 1.95216435 0 0 Z " fill="#164E72" transform="translate(814,1003)"/>
<path d="M0 0 C1.70884005 1.62339805 3.37446717 3.29319053 5 5 C5 5.66 5 6.32 5 7 C3.35 7.66 1.7 8.32 0 9 C-1.10844919 5.67465243 -0.84454356 3.37817425 0 0 Z " fill="#144E72" transform="translate(1458,770)"/>
<path d="M0 0 C0.68707555 2.49064888 1 4.37886292 1 7 C0.01 7.33 -0.98 7.66 -2 8 C-3.66710346 9.49985609 -3.66710346 9.49985609 -5 11 C-5 7.58678765 -4.33132534 6.60527115 -2.5 3.8125 C-2.0359375 3.09707031 -1.571875 2.38164063 -1.09375 1.64453125 C-0.7328125 1.10183594 -0.371875 0.55914063 0 0 Z " fill="#1B5071" transform="translate(318,632)"/>
<path d="M0 0 C0.33 0 0.66 0 1 0 C1.13277344 0.74765625 1.26554688 1.4953125 1.40234375 2.265625 C1.57894531 3.25046875 1.75554688 4.2353125 1.9375 5.25 C2.19853516 6.71179688 2.19853516 6.71179688 2.46484375 8.203125 C2.90379729 10.49721795 3.40348592 12.74291971 4 15 C2.68 14.67 1.36 14.34 0 14 C-1.13016601 8.97703996 -0.77916092 5.02125926 0 0 Z " fill="#1F5476" transform="translate(972,151)"/>
<path d="M0 0 C1.98 0.66 3.96 1.32 6 2 C5.67 2.66 5.34 3.32 5 4 C2.03 4 -0.94 4 -4 4 C-2.68 2.68 -1.36 1.36 0 0 Z " fill="#185177" transform="translate(1428,1714)"/>
<path d="M0 0 C0.33 0 0.66 0 1 0 C1.66 3.96 2.32 7.92 3 12 C2.34 12 1.68 12 1 12 C0.67 11.01 0.34 10.02 0 9 C-0.66 9 -1.32 9 -2 9 C-1.41196203 5.97580475 -0.77321882 2.98241547 0 0 Z " fill="#225578" transform="translate(733,1690)"/>
<path d="M0 0 C1.32 0 2.64 0 4 0 C4 0.66 4 1.32 4 2 C4.94875 1.814375 5.8975 1.62875 6.875 1.4375 C10 1 10 1 12 2 C12 2.66 12 3.32 12 4 C8.37 3.67 4.74 3.34 1 3 C0.67 2.01 0.34 1.02 0 0 Z " fill="#1F5579" transform="translate(940,1433)"/>
<path d="M0 0 C0.66 1.32 1.32 2.64 2 4 C1.34 4.66 0.68 5.32 0 6 C0 5.34 0 4.68 0 4 C-0.99 4.66 -1.98 5.32 -3 6 C-6.1875 6.125 -6.1875 6.125 -9 6 C-6.11964908 3.75972706 -3.15133488 1.83827868 0 0 Z " fill="#1B5174" transform="translate(1332,1225)"/>
<path d="M0 0 C1.32 0.33 2.64 0.66 4 1 C5.25 4.0625 5.25 4.0625 6 7 C4.68 7.33 3.36 7.66 2 8 C1.34 5.36 0.68 2.72 0 0 Z " fill="#124C72" transform="translate(1625,1076)"/>
<path d="M0 0 C0.66 0.33 1.32 0.66 2 1 C-0.52788007 3.79872437 -2.20411134 5.45773019 -6 6 C-6.33 5.01 -6.66 4.02 -7 3 C-4.69631264 1.93347808 -2.35981813 0.93578995 0 0 Z " fill="#174F72" transform="translate(483,1727)"/>
<path d="M0 0 C0.66 0.66 1.32 1.32 2 2 C-2.455 4.97 -2.455 4.97 -7 8 C-7 6.35 -7 4.7 -7 3 C-3.535 2.505 -3.535 2.505 0 2 C0 1.34 0 0.68 0 0 Z " fill="#1A5176" transform="translate(1458,1697)"/>
<path d="M0 0 C2.40072955 2.88087546 4.47291037 5.56404834 6 9 C4.35 9 2.7 9 1 9 C0.67 6.03 0.34 3.06 0 0 Z " fill="#1C5377" transform="translate(787,1070)"/>
<path d="M0 0 C0.33 1.32 0.66 2.64 1 4 C0.01 3.67 -0.98 3.34 -2 3 C-2.28875 3.639375 -2.5775 4.27875 -2.875 4.9375 C-4 7 -4 7 -6 8 C-5.6875 5.125 -5.6875 5.125 -5 2 C-2 0 -2 0 0 0 Z " fill="#114D73" transform="translate(254,771)"/>
<path d="M0 0 C0 3 0 3 -1.27734375 4.5 C-1.82519531 4.995 -2.37304688 5.49 -2.9375 6 C-5.27535925 8.12231195 -5.96275884 8.88827651 -7 12 C-7.99 11.67 -8.98 11.34 -10 11 C-6.79239749 7.19364503 -3.59253891 3.45436433 0 0 Z " fill="#1B4F73" transform="translate(461,459)"/>
<path d="M0 0 C2.31 1.98 4.62 3.96 7 6 C5.68 6.33 4.36 6.66 3 7 C2.01 6.34 1.02 5.68 0 5 C-0.1875 2.375 -0.1875 2.375 0 0 Z " fill="#255878" transform="translate(1365,169)"/>
<path d="M0 0 C2.97 0.495 2.97 0.495 6 1 C5.625 3.4375 5.625 3.4375 5 6 C4.01 6.495 4.01 6.495 3 7 C2.67 5.68 2.34 4.36 2 3 C1.34 3.99 0.68 4.98 0 6 C0 4.02 0 2.04 0 0 Z " fill="#21587B" transform="translate(804,1657)"/>
<path d="M0 0 C1.32 0.33 2.64 0.66 4 1 C2.8125 3 2.8125 3 1 5 C-1.6875 5.25 -1.6875 5.25 -4 5 C-2.68 3.35 -1.36 1.7 0 0 Z " fill="#134C71" transform="translate(1404,1538)"/>
<path d="M0 0 C0.33 0.99 0.66 1.98 1 3 C0.0390625 4.82421875 0.0390625 4.82421875 -1.375 6.6875 C-1.83648438 7.31011719 -2.29796875 7.93273438 -2.7734375 8.57421875 C-3.17820312 9.04472656 -3.58296875 9.51523438 -4 10 C-4.33 10 -4.66 10 -5 10 C-5 8.35 -5 6.7 -5 5 C-4.34 5 -3.68 5 -3 5 C-2.5359375 4.0409375 -2.5359375 4.0409375 -2.0625 3.0625 C-1 1 -1 1 0 0 Z " fill="#184E73" transform="translate(1650,1502)"/>
<path d="M0 0 C0.66 0 1.32 0 2 0 C1.50168276 3.68754757 0.89932357 5.60490662 -2 8 C-2.66 6.02 -3.32 4.04 -4 2 C-2.68 2 -1.36 2 0 2 C0 1.34 0 0.68 0 0 Z " fill="#164D72" transform="translate(1669,1472)"/>
<path d="M0 0 C1.32 0.33 2.64 0.66 4 1 C4 1.66 4 2.32 4 3 C4.61875 3.268125 5.2375 3.53625 5.875 3.8125 C8 5 8 5 10 8 C6.01328937 6.63312778 3.11505367 4.84804907 0 2 C0 1.34 0 0.68 0 0 Z " fill="#2A5D81" transform="translate(1068,1472)"/>
<path d="M0 0 C1.32 0 2.64 0 4 0 C4.33 2.31 4.66 4.62 5 7 C4.01 7.495 4.01 7.495 3 8 C0 2.25 0 2.25 0 0 Z " fill="#1C5378" transform="translate(273,1381)"/>
<path d="M0 0 C0 3 0 3 -1.1875 4.75 C-3 6 -3 6 -5.6875 5.6875 C-6.450625 5.460625 -7.21375 5.23375 -8 5 C-5.44008376 2.98863724 -2.95409701 1.37154504 0 0 Z " fill="#21587A" transform="translate(1308,1238)"/>
<path d="M0 0 C0.99 0.33 1.98 0.66 3 1 C3 1.66 3 2.32 3 3 C3.66 3 4.32 3 5 3 C5 4.32 5 5.64 5 7 C4.01 7.33 3.02 7.66 2 8 C0.74335022 5.09399739 0 3.20395416 0 0 Z " fill="#134C6F" transform="translate(1386,911)"/>
<path d="M0 0 C0.86625 0.2784375 0.86625 0.2784375 1.75 0.5625 C4.20692525 1.04023546 5.64397534 0.75729364 8 0 C8 0.66 8 1.32 8 2 C4.535 3.485 4.535 3.485 1 5 C0.34 4.01 -0.32 3.02 -1 2 C-0.67 1.34 -0.34 0.68 0 0 Z " fill="#174E73" transform="translate(707,476)"/>
<path d="M0 0 C0 0.66 0 1.32 0 2 C-1.53125 3.2890625 -1.53125 3.2890625 -3.5 4.625 C-4.1496875 5.07101562 -4.799375 5.51703125 -5.46875 5.9765625 C-6.22671875 6.48316406 -6.22671875 6.48316406 -7 7 C-7.33 6.34 -7.66 5.68 -8 5 C-8.66 4.67 -9.32 4.34 -10 4 C-8.71086513 3.32845067 -7.41859796 2.66291141 -6.125 2 C-5.40570312 1.62875 -4.68640625 1.2575 -3.9453125 0.875 C-2 0 -2 0 0 0 Z " fill="#285B7D" transform="translate(646,334)"/>
<path d="M0 0 C0.66 0.33 1.32 0.66 2 1 C1.34 2.65 0.68 4.3 0 6 C-1.98 6 -3.96 6 -6 6 C-4 4 -2 2 0 0 Z " fill="#194E72" transform="translate(1398,1543)"/>
<path d="M0 0 C0.99 0.33 1.98 0.66 3 1 C4.66621616 1.03874921 6.33394172 1.0450286 8 1 C4.71536341 3.18975773 1.79303725 3.99806563 -2 5 C-1.125 1.125 -1.125 1.125 0 0 Z " fill="#1A4F73" transform="translate(1331,1348)"/>
<path d="M0 0 C0.66 0 1.32 0 2 0 C2 0.66 2 1.32 2 2 C3.65 2.33 5.3 2.66 7 3 C7.33 3.99 7.66 4.98 8 6 C7.34 6.66 6.68 7.32 6 8 C4.9970458 6.85675161 3.99770973 5.71032809 3 4.5625 C2.443125 3.92441406 1.88625 3.28632812 1.3125 2.62890625 C0 1 0 1 0 0 Z " fill="#245777" transform="translate(717,1184)"/>
<path d="M0 0 C0.66 1.32 1.32 2.64 2 4 C-1.00617269 7.00617269 -3.82381598 6.59585316 -8 7 C-7.236875 6.401875 -6.47375 5.80375 -5.6875 5.1875 C-3.6516425 3.53040668 -1.8021721 1.89702326 0 0 Z " fill="#184F73" transform="translate(1492,1086)"/>
<path d="M0 0 C2 1 2 1 3.25 4.375 C3.4975 5.57125 3.745 6.7675 4 8 C3.01 9.485 3.01 9.485 2 11 C0.19769832 7.17010894 -0.19622241 4.21878192 0 0 Z " fill="#1B5175" transform="translate(1609,1026)"/>
<path d="M0 0 C2.32472205 2.85306797 3.7508258 5.54074837 5 9 C1.63983107 7.87994369 0.30935087 6.62788203 -2 4 C-2 3.34 -2 2.68 -2 2 C-1.34 2 -0.68 2 0 2 C0 1.34 0 0.68 0 0 Z " fill="#1C5275" transform="translate(1691,660)"/>
<path d="M0 0 C1 3 1 3 1 6 C-2.33333333 9 -2.33333333 9 -5 9 C-3.7508258 5.54074837 -2.32472205 2.85306797 0 0 Z " fill="#195173" transform="translate(332,610)"/>
<path d="M0 0 C0.66 0.66 1.32 1.32 2 2 C1.9765625 4.1640625 1.9765625 4.1640625 1.625 6.625 C1.51414062 7.44226563 1.40328125 8.25953125 1.2890625 9.1015625 C1.19367187 9.72804688 1.09828125 10.35453125 1 11 C0.34 11 -0.32 11 -1 11 C-1.125 3.375 -1.125 3.375 0 0 Z " fill="#1A5378" transform="translate(796,424)"/>
<path d="M0 0 C0 0.99 0 1.98 0 3 C-3.16216412 5.37162309 -6.41213553 7.34406255 -10 9 C-8.77946141 5.33838422 -7.63217696 4.83729526 -4.4375 2.8125 C-3.61121094 2.28269531 -2.78492188 1.75289063 -1.93359375 1.20703125 C-1.29550781 0.80871094 -0.65742187 0.41039062 0 0 Z " fill="#1B5172" transform="translate(549,390)"/>
<path d="M0 0 C0.66 0.66 1.32 1.32 2 2 C-0.31 3.32 -2.62 4.64 -5 6 C-5.66 5.01 -6.32 4.02 -7 3 C-4.69 2.01 -2.38 1.02 0 0 Z " fill="#154D73" transform="translate(1279,393)"/>
<path d="M0 0 C0.66 0.33 1.32 0.66 2 1 C2.73075648 3.3140622 3.40138258 5.64828869 4 8 C2.35 8 0.7 8 -1 8 C-0.67 5.36 -0.34 2.72 0 0 Z " fill="#154D71" transform="translate(1403,223)"/>
<path d="M0 0 C3.465 1.98 3.465 1.98 7 4 C3.67465243 5.10844919 1.37817425 4.84454356 -2 4 C-1.34 2.68 -0.68 1.36 0 0 Z " fill="#E0EAF1" transform="translate(1030,206)"/>
<path d="M0 0 C1.65 0 3.3 0 5 0 C5 0.66 5 1.32 5 2 C6.32 1.67 7.64 1.34 9 1 C9 1.66 9 2.32 9 3 C6.03 3 3.06 3 0 3 C0 2.01 0 1.02 0 0 Z " fill="#194F73" transform="translate(360,1812)"/>
<path d="M0 0 C0.99 0.33 1.98 0.66 3 1 C3.33 3.31 3.66 5.62 4 8 C2 6.8125 2 6.8125 0 5 C-0.25 2.3125 -0.25 2.3125 0 0 Z " fill="#285B7E" transform="translate(437,1611)"/>
<path d="M0 0 C1.32 0.33 2.64 0.66 4 1 C1.69 3.31 -0.62 5.62 -3 8 C-3.33 7.01 -3.66 6.02 -4 5 C-3.34 5 -2.68 5 -2 5 C-1.67 4.01 -1.34 3.02 -1 2 C-0.67 1.34 -0.34 0.68 0 0 Z " fill="#1F5173" transform="translate(1570,1600)"/>
<path d="M0 0 C1.625 1.6875 1.625 1.6875 3 4 C2.1875 6.75 2.1875 6.75 1 9 C0.67 8.34 0.34 7.68 0 7 C-0.66 6.67 -1.32 6.34 -2 6 C-1.34 5.01 -0.68 4.02 0 3 C-0.66 2.67 -1.32 2.34 -2 2 C-1.34 2 -0.68 2 0 2 C0 1.34 0 0.68 0 0 Z " fill="#154E74" transform="translate(1331,1435)"/>
<path d="M0 0 C0 1.32 0 2.64 0 4 C-0.66 4 -1.32 4 -2 4 C-2 4.66 -2 5.32 -2 6 C-2.99 6 -3.98 6 -5 6 C-5.33 5.01 -5.66 4.02 -6 3 C-2.25 0 -2.25 0 0 0 Z " fill="#154D73" transform="translate(1606,1305)"/>
<path d="M0 0 C0.99 0.33 1.98 0.66 3 1 C3.33 2.65 3.66 4.3 4 6 C2.35 5.67 0.7 5.34 -1 5 C-0.67 3.35 -0.34 1.7 0 0 Z " fill="#185075" transform="translate(234,818)"/>
<path d="M0 0 C0.66 0 1.32 0 2 0 C2.66 2.31 3.32 4.62 4 7 C3.01 7.33 2.02 7.66 1 8 C0 7 0 7 -0.0625 3.4375 C-0.041875 2.303125 -0.02125 1.16875 0 0 Z " fill="#185075" transform="translate(1723,725)"/>
<path d="M0 0 C0.66 0 1.32 0 2 0 C2.99 2.31 3.98 4.62 5 7 C3.35 7 1.7 7 0 7 C-1.125 2.25 -1.125 2.25 0 0 Z " fill="#164F72" transform="translate(1683,648)"/>
<path d="M0 0 C0.33 0.66 0.66 1.32 1 2 C-0.32 3.65 -1.64 5.3 -3 7 C-3.99 6.67 -4.98 6.34 -6 6 C-2.25 1.125 -2.25 1.125 0 0 Z " fill="#144C71" transform="translate(364,567)"/>
<path d="M0 0 C2 3 2 3 2 5 C1.34 5 0.68 5 0 5 C-0.28875 5.639375 -0.5775 6.27875 -0.875 6.9375 C-2 9 -2 9 -4 10 C-2.8905928 6.51329166 -1.73662334 3.22515763 0 0 Z " fill="#2A5D7F" transform="translate(1354,497)"/>
<path d="M0 0 C0.66 0.66 1.32 1.32 2 2 C0.35 4.31 -1.3 6.62 -3 9 C-3.66 8.01 -4.32 7.02 -5 6 C-4.34 5.01 -3.68 4.02 -3 3 C-2.34 3 -1.68 3 -1 3 C-0.67 2.01 -0.34 1.02 0 0 Z " fill="#154D72" transform="translate(1328,496)"/>
<path d="M0 0 C0.99 0.33 1.98 0.66 3 1 C2.01 3.64 1.02 6.28 0 9 C-0.99 8.67 -1.98 8.34 -3 8 C-2.01 5.36 -1.02 2.72 0 0 Z " fill="#164E72" transform="translate(1315,1362)"/>
<path d="M0 0 C1.65 0.99 3.3 1.98 5 3 C3.1875 4.5625 3.1875 4.5625 1 6 C0.01 5.67 -0.98 5.34 -2 5 C-1.34 3.35 -0.68 1.7 0 0 Z " fill="#184F73" transform="translate(1444,1298)"/>
<path d="M0 0 C0.33 1.32 0.66 2.64 1 4 C0.01 4.495 0.01 4.495 -1 5 C-1.65213292 7.02463255 -1.65213292 7.02463255 -2 9 C-2.99 8.67 -3.98 8.34 -5 8 C-3.35 5.36 -1.7 2.72 0 0 Z " fill="#1C5175" transform="translate(1702,1201)"/>
<path d="M0 0 C0.66 0 1.32 0 2 0 C1.25 5.75 1.25 5.75 -1 8 C-1.66 6.68 -2.32 5.36 -3 4 C-1.625 2 -1.625 2 0 0 Z " fill="#164E72" transform="translate(1292,1020)"/>
<path d="M0 0 C1.09658936 3.28976808 0.79953138 4.71303767 0 8 C-1.5 6.75 -1.5 6.75 -3 5 C-3 3.68 -3 2.36 -3 1 C-2.01 0.67 -1.02 0.34 0 0 Z " fill="#114B72" transform="translate(1430,991)"/>
<path d="M0 0 C1.875 0.1875 1.875 0.1875 4 1 C5.25 3.5625 5.25 3.5625 6 6 C3.69 5.34 1.38 4.68 -1 4 C-0.67 2.68 -0.34 1.36 0 0 Z " fill="#134C71" transform="translate(1578,946)"/>
<path d="M0 0 C0.66 0 1.32 0 2 0 C2.625 2.3125 2.625 2.3125 3 5 C2.01 6.485 2.01 6.485 1 8 C0.34 8 -0.32 8 -1 8 C-0.67 5.36 -0.34 2.72 0 0 Z " fill="#23587B" transform="translate(220,870)"/>
<path d="M0 0 C0.93065133 2.60582371 1.14917407 3.64198224 0.0625 6.25 C-0.4634375 7.11625 -0.4634375 7.11625 -1 8 C-1.99 8 -2.98 8 -4 8 C-2.87548273 5.0280615 -1.77706209 2.66559313 0 0 Z " fill="#1C5275" transform="translate(309,647)"/>
<path d="M0 0 C1 2 1 2 0.25 4.5625 C-1 7 -1 7 -4 8 C-4.66 7.34 -5.32 6.68 -6 6 C-4.02 4.02 -2.04 2.04 0 0 Z " fill="#1F5376" transform="translate(1321,544)"/>
<path d="M0 0 C1 3 1 3 1 5 C-1.90600261 6.25664978 -3.79604584 7 -7 7 C-4.69 4.69 -2.38 2.38 0 0 Z " fill="#215678" transform="translate(444,475)"/>
<path d="M0 0 C0.99 0 1.98 0 3 0 C3.25 2.3125 3.25 2.3125 3 5 C1 6.8125 1 6.8125 -1 8 C-0.67 5.36 -0.34 2.72 0 0 Z " fill="#134C71" transform="translate(892,390)"/>
<path d="M0 0 C0.33 0.66 0.66 1.32 1 2 C0.0625 4.625 0.0625 4.625 -1 7 C-2.65 5.68 -4.3 4.36 -6 3 C-4.02 2.01 -2.04 1.02 0 0 Z " fill="#1C5479" transform="translate(623,345)"/>
<path d="M0 0 C2.31 0.33 4.62 0.66 7 1 C7 1.99 7 2.98 7 4 C4.36 3.34 1.72 2.68 -1 2 C-0.67 1.34 -0.34 0.68 0 0 Z " fill="#1F5479" transform="translate(351,1810)"/>
<path d="M0 0 C1.65 0.33 3.3 0.66 5 1 C5 2.32 5 3.64 5 5 C2.69 4.34 0.38 3.68 -2 3 C-1.34 2.01 -0.68 1.02 0 0 Z " fill="#124C71" transform="translate(1498,1442)"/>
<path d="M0 0 C0.99 0 1.98 0 3 0 C3 2.31 3 4.62 3 7 C2.01 6.67 1.02 6.34 0 6 C0 4.02 0 2.04 0 0 Z " fill="#235A7C" transform="translate(204,968)"/>
<path d="M0 0 C0.66 0 1.32 0 2 0 C1.67 1.65 1.34 3.3 1 5 C-0.65 5 -2.3 5 -4 5 C-2.71937515 3.2925002 -1.38232443 1.62626404 0 0 Z " fill="#1C5276" transform="translate(747,889)"/>
<path d="M0 0 C0.66 0 1.32 0 2 0 C2.33 1.98 2.66 3.96 3 6 C1.68 6.33 0.36 6.66 -1 7 C-1.04254356 5.00045254 -1.04080783 2.99958364 -1 1 C-0.67 0.67 -0.34 0.34 0 0 Z " fill="#1A5277" transform="translate(1754,806)"/>
<path d="M0 0 C2.88575819 0.39803561 3.82189513 0.79009069 5.75 3.0625 C6.1625 3.701875 6.575 4.34125 7 5 C6.01 5.495 6.01 5.495 5 6 C4.67 5.34 4.34 4.68 4 4 C2.68 4 1.36 4 0 4 C0 2.68 0 1.36 0 0 Z " fill="#1B5276" transform="translate(1425,738)"/>
<path d="M0 0 C0.66 0 1.32 0 2 0 C2 1.98 2 3.96 2 6 C1.01 6 0.02 6 -1 6 C-2.6875 4 -2.6875 4 -4 2 C-2.68 2.33 -1.36 2.66 0 3 C0 2.01 0 1.02 0 0 Z " fill="#1A4F72" transform="translate(1462,610)"/>
<path d="M0 0 C1.32 0.66 2.64 1.32 4 2 C2.35 3.98 0.7 5.96 -1 8 C-1.33 7.01 -1.66 6.02 -2 5 C-1.34 5 -0.68 5 0 5 C0 3.35 0 1.7 0 0 Z " fill="#154C6F" transform="translate(1312,512)"/>
<path d="M0 0 C0.33 0 0.66 0 1 0 C0.67 2.97 0.34 5.94 0 9 C-0.99 8.67 -1.98 8.34 -3 8 C-1.125 1.125 -1.125 1.125 0 0 Z " fill="#124C73" transform="translate(1493,492)"/>
<path d="M0 0 C1.485 0.99 1.485 0.99 3 2 C2.34 4.31 1.68 6.62 1 9 C0.67 9 0.34 9 0 9 C-0.87890625 2.84765625 -0.87890625 2.84765625 -1 1 C-0.67 0.67 -0.34 0.34 0 0 Z " fill="#144C71" transform="translate(1411,464)"/>
<path d="M0 0 C2.475 0.495 2.475 0.495 5 1 C5.33 2.65 5.66 4.3 6 6 C5.01 6 4.02 6 3 6 C3.33 5.34 3.66 4.68 4 4 C2.68 2.68 1.36 1.36 0 0 Z " fill="#1F5475" transform="translate(961,225)"/>
<path d="M0 0 C4.95 0.99 4.95 0.99 10 2 C9.01 2.33 8.02 2.66 7 3 C7 3.66 7 4.32 7 5 C4.625 4.75 4.625 4.75 2 4 C1.34 2.68 0.68 1.36 0 0 Z " fill="#1B5376" transform="translate(1023,208)"/>
<path d="M0 0 C1.65 0 3.3 0 5 0 C0.375 4.875 0.375 4.875 -3 6 C-2.67 5.01 -2.34 4.02 -2 3 C-1.34 3 -0.68 3 0 3 C0 2.01 0 1.02 0 0 Z " fill="#174E70" transform="translate(1473,1685)"/>
<path d="M0 0 C2.475 0.99 2.475 0.99 5 2 C5.33 1.34 5.66 0.68 6 0 C6 0.99 6 1.98 6 3 C4.02 3.99 4.02 3.99 2 5 C2 4.01 2 3.02 2 2 C1.01 1.67 0.02 1.34 -1 1 C-0.67 0.67 -0.34 0.34 0 0 Z " fill="#205478" transform="translate(1541,1625)"/>
<path d="M0 0 C0.99 1.32 1.98 2.64 3 4 C1.68 5.32 0.36 6.64 -1 8 C-1.04241723 5.66705225 -1.04092937 3.33297433 -1 1 C-0.67 0.67 -0.34 0.34 0 0 Z " fill="#164D72" transform="translate(1602,1562)"/>
<path d="M0 0 C0.33 0 0.66 0 1 0 C1.33 3.3 1.66 6.6 2 10 C1.01 10 0.02 10 -1 10 C-0.67 6.7 -0.34 3.4 0 0 Z " fill="#275B7D" transform="translate(429,1550)"/>
<path d="M0 0 C0.66 0 1.32 0 2 0 C1.67 3.3 1.34 6.6 1 10 C0.67 10 0.34 10 0 10 C-0.19412181 8.52168779 -0.38012131 7.04230684 -0.5625 5.5625 C-0.66691406 4.73878906 -0.77132813 3.91507813 -0.87890625 3.06640625 C-0.91886719 2.38449219 -0.95882813 1.70257812 -1 1 C-0.67 0.67 -0.34 0.34 0 0 Z " fill="#346687" transform="translate(497,1416)"/>
<path d="M0 0 C0.33 1.32 0.66 2.64 1 4 C-1.4375 6.75 -1.4375 6.75 -4 9 C-4.66 8.67 -5.32 8.34 -6 8 C-4.02 5.36 -2.04 2.72 0 0 Z " fill="#255778" transform="translate(1689,1220)"/>
<path d="M0 0 C1.32 0.33 2.64 0.66 4 1 C4 2.65 4 4.3 4 6 C3.01 6 2.02 6 1 6 C0.67 4.02 0.34 2.04 0 0 Z " fill="#164F74" transform="translate(866,1098)"/>
<path d="M0 0 C0.33 0.66 0.66 1.32 1 2 C1.66 2 2.32 2 3 2 C3.66 3.98 4.32 5.96 5 8 C4.01 8.495 4.01 8.495 3 9 C0.70620251 5.55930376 0 4.27709699 0 0 Z " fill="#144E75" transform="translate(634,1072)"/>
<path d="M0 0 C0 3 0 3 -1 6 C-4.0625 7.1875 -4.0625 7.1875 -7 8 C-6.02133662 6.85373678 -5.04205413 5.70800212 -4.0625 4.5625 C-3.51722656 3.92441406 -2.97195313 3.28632812 -2.41015625 2.62890625 C-1.63204305 1.73008851 -0.84063472 0.84063472 0 0 Z " fill="#14496B" transform="translate(725,910)"/>
<path d="M0 0 C0.99 0 1.98 0 3 0 C5 3 5 3 4.625 5.1875 C4.41875 5.785625 4.2125 6.38375 4 7 C0 2.25 0 2.25 0 0 Z " fill="#154D72" transform="translate(1650,901)"/>
<path d="M0 0 C1.125 1.75 1.125 1.75 2 4 C1.05773345 6.66975522 0.01384202 7.98615798 -2 10 C-3.39195915 5.82412255 -1.82323219 3.86525224 0 0 Z " fill="#1E5477" transform="translate(266,731)"/>
<path d="M0 0 C0.66 0 1.32 0 2 0 C0.66666667 2.66666667 -0.66666667 5.33333333 -2 8 C-2.99 7.34 -3.98 6.68 -5 6 C-3.38405168 3.95880212 -1.7143618 1.95927063 0 0 Z " fill="#1F5479" transform="translate(1454,562)"/>
<path d="M0 0 C-0.3125 1.9375 -0.3125 1.9375 -1 4 C-1.99 4.33 -2.98 4.66 -4 5 C-4.99 4.34 -5.98 3.68 -7 3 C-2.25 0 -2.25 0 0 0 Z " fill="#1D5374" transform="translate(578,372)"/>
<path d="M0 0 C-0.33 1.32 -0.66 2.64 -1 4 C-1.66 4 -2.32 4 -3 4 C-3 3.34 -3 2.68 -3 2 C-3.61875 2.20625 -4.2375 2.4125 -4.875 2.625 C-5.57625 2.74875 -6.2775 2.8725 -7 3 C-7.66 2.34 -8.32 1.68 -9 1 C-5.846632 0.29925156 -3.27275026 0 0 0 Z " fill="#326481" transform="translate(845,267)"/>
<path d="M0 0 C0 0.99 0 1.98 0 3 C-2.31 3.66 -4.62 4.32 -7 5 C-7.33 4.34 -7.66 3.68 -8 3 C-2.25 0 -2.25 0 0 0 Z " fill="#164E73" transform="translate(1024,90)"/>
<path d="M0 0 C-0.33 1.65 -0.66 3.3 -1 5 C-3.475 4.01 -3.475 4.01 -6 3 C-2.25 0 -2.25 0 0 0 Z " fill="#1D5476" transform="translate(376,1769)"/>
<path d="M0 0 C1.32 0.66 2.64 1.32 4 2 C-1.75 5 -1.75 5 -4 5 C-4 4.01 -4 3.02 -4 2 C-2.68 2 -1.36 2 0 2 C0 1.34 0 0.68 0 0 Z " fill="#1A4F71" transform="translate(1360,1755)"/>
<path d="M0 0 C0.928125 0.2784375 0.928125 0.2784375 1.875 0.5625 C4.04160178 1.23686176 4.04160178 1.23686176 6 0 C6 1.32 6 2.64 6 4 C5.34 4 4.68 4 4 4 C3.67 4.66 3.34 5.32 3 6 C2.01 4.02 1.02 2.04 0 0 Z " fill="#174D71" transform="translate(353,1517)"/>
<path d="M0 0 C0.99 0 1.98 0 3 0 C3.33 1.98 3.66 3.96 4 6 C3.01 6 2.02 6 1 6 C0.67 4.02 0.34 2.04 0 0 Z " fill="#1B5379" transform="translate(322,1469)"/>
<path d="M0 0 C2 1 2 1 3 3 C0.29120665 4.35439668 -2.00933268 4.06501451 -5 4 C-3.73293765 1.46587529 -2.59334288 1.02161992 0 0 Z " fill="#1D5577" transform="translate(512,1233)"/>
<path d="M0 0 C0.66 0.33 1.32 0.66 2 1 C0.515 3.475 0.515 3.475 -1 6 C-1.99 5.67 -2.98 5.34 -4 5 C-3 2 -3 2 0 0 Z " fill="#1D5475" transform="translate(1345,1217)"/>
<path d="M0 0 C0.99 0.33 1.98 0.66 3 1 C2.33333333 3 1.66666667 5 1 7 C0.01 5.68 -0.98 4.36 -2 3 C-1.34 2.01 -0.68 1.02 0 0 Z " fill="#144D70" transform="translate(748,1209)"/>
<path d="M0 0 C0 3.10551666 -0.5393715 4.35261084 -2 7 C-3.32 6.67 -4.64 6.34 -6 6 C-4.02 4.02 -2.04 2.04 0 0 Z " fill="#225778" transform="translate(1445,1123)"/>
<path d="M0 0 C0.99 0.33 1.98 0.66 3 1 C0.44008376 3.01136276 -2.04590299 4.62845496 -5 6 C-4.67 4.68 -4.34 3.36 -4 2 C-2.68 2 -1.36 2 0 2 C0 1.34 0 0.68 0 0 Z " fill="#184E70" transform="translate(776,1031)"/>
<path d="M0 0 C0.99 0.33 1.98 0.66 3 1 C0.14693203 3.32472205 -2.54074837 4.7508258 -6 6 C-6 5.34 -6 4.68 -6 4 C-3.1875 1.8125 -3.1875 1.8125 0 0 Z " fill="#1B5173" transform="translate(865,783)"/>
<path d="M0 0 C-1.36983503 3.16115776 -1.9890638 3.9927092 -5 6 C-5.33 4.68 -5.66 3.36 -6 2 C-2.25 0 -2.25 0 0 0 Z " fill="#1A5173" transform="translate(583,563)"/>
<path d="M0 0 C0.66 0 1.32 0 2 0 C1.6875 2.375 1.6875 2.375 1 5 C0.01 5.66 -0.98 6.32 -2 7 C-2 3.89448334 -1.4606285 2.64738916 0 0 Z " fill="#124D73" transform="translate(1372,526)"/>
<path d="M0 0 C-1.04874998 2.62187494 -1.64931313 3.79371361 -4.125 5.25 C-4.74375 5.4975 -5.3625 5.745 -6 6 C-5.6875 4.125 -5.6875 4.125 -5 2 C-2 0 -2 0 0 0 Z " fill="#124C72" transform="translate(1307,521)"/>
<path d="M0 0 C0.99 0.99 1.98 1.98 3 3 C2.67 3.99 2.34 4.98 2 6 C-0.0625 6.6875 -0.0625 6.6875 -2 7 C-1.34 4.69 -0.68 2.38 0 0 Z " fill="#195076" transform="translate(1362,477)"/>
<path d="M0 0 C0.66 0.33 1.32 0.66 2 1 C1.41789544 5.19115285 0.71843438 6.37542083 -2 10 C-1.34 6.7 -0.68 3.4 0 0 Z " fill="#BCD0DD" transform="translate(1250,434)"/>
<path d="M0 0 C1.07349791 4.29399165 0.79682816 5.19495213 -1 9 C-1.66 9 -2.32 9 -3 9 C-2.01 6.03 -1.02 3.06 0 0 Z " fill="#1E5376" transform="translate(907,342)"/>
<path d="M0 0 C2.89932357 2.39509338 3.50168276 4.31245243 4 8 C3.34 8 2.68 8 2 8 C2 6.68 2 5.36 2 4 C0.68 3.34 -0.64 2.68 -2 2 C-1.34 1.34 -0.68 0.68 0 0 Z " fill="#2A5C7C" transform="translate(1411,243)"/>
</svg>
